<svg id="Слой_1" data-name="Слой 1" xmlns="http://www.w3.org/2000/svg" viewBox="0 0 462.56 511.73"><defs><style>.cls-1,.cls-2{fill:none;stroke:#fff;stroke-miterlimit:10}.cls-1{stroke-width:44.63px}.cls-2{stroke-width:40px}.cls-3{fill:#fff}</style></defs><path class="cls-1" d="M313.68 438.09a87 87 0 01-16.76 51.32H163.08a87 87 0 01-16.76-51.32 83.68 83.68 0 01167.36 0z" transform="translate(.43)"/><rect class="cls-1" x="167.76" y="281.74" width="124" height="72.67" rx="36.33" ry="36.33"/><path class="cls-2" d="M229.33 109.08A53.86 53.86 0 01176.55 66l-9.22-45.22h124L282.12 66a53.87 53.87 0 01-52.79 43.08z" transform="translate(.43)"/><path class="cls-2" d="M229.76 109.07l.67 172.67"/><path class="cls-3" d="M430.43.82l-40-.82-.7 34.41h40.01l.69-33.59z"/><path class="cls-3" d="M386.88 140.74a41 41 0 01-40.41 35.52h-.11L81 175.57h-.21a80.76 80.76 0 00-.91 161.52l87.26 1 .45-40-87.26-1a40.76 40.76 0 01.43-81.52h.11l265.39.69h.21a80.75 80.75 0 0080.58-75.52z" transform="translate(.43)"/><rect class="cls-2" x="377.76" y="41.74" width="64.8" height="96.12" rx="32.4" ry="32.4"/></svg>