<svg id="Capa_1" data-name="Capa 1" xmlns="http://www.w3.org/2000/svg" viewBox="0 0 80.35 80.35"><defs><style>.cls-1{fill:#f6f4f9}</style></defs><path class="cls-1" d="M40.17 2.5A37.68 37.68 0 112.5 40.17 37.72 37.72 0 0140.17 2.5m0-2.5a40.18 40.18 0 1040.18 40.17A40.18 40.18 0 0040.17 0z"/><path class="cls-1" d="M43.86 18a3.66 3.66 0 012.53 1 3 3 0 011 2.27 2.88 2.88 0 01-1 2.2 4 4 0 01-5.33 0 3 3 0 010-4.46 3.78 3.78 0 012.62-1h.14m0-2.5h-.18a6.23 6.23 0 00-4.29 1.7 5.48 5.48 0 000 8.12 6.51 6.51 0 008.71 0 5.49 5.49 0 000-8.12 6.14 6.14 0 00-4.25-1.7zM38 34.66a6.32 6.32 0 014.08 1.18 3.42 3.42 0 011.19 2.78c0 .19 0 .63-.06 1.09 0 .25 0 .54-.06.81a11.09 11.09 0 01-.44 2.21l-2.54 9.08a22.17 22.17 0 00-.63 2.77 14.93 14.93 0 00-.27 2.49v.06A5.41 5.41 0 0041 61.6a3.93 3.93 0 00.66.47 12.57 12.57 0 01-2.33.2 6 6 0 01-4.14-1.2 3.34 3.34 0 01-1.2-2.74A13.06 13.06 0 0134 56.4a22.4 22.4 0 01.45-2.28L37.06 45c.23-.84.39-1.59.55-2.32l.06-.27a12.74 12.74 0 00.33-2.72v-.53c0-.22 0-.44-.06-.65a2.72 2.72 0 00-.07-.43v-.22c0-.1 0-.19-.07-.25a1.8 1.8 0 00-.06-.22v-.33l-.12-.28-.06-.13a.83.83 0 01-.07-.13v-.11l-.06-.08-.12-.19a2.88 2.88 0 00-.3-.39.39.39 0 01-.08-.1h-.05l-.05-.06-.09-.09h-.07l-.1-.08-.65-.42-.12-.07a11.34 11.34 0 012.2-.27m0-2.5a14.3 14.3 0 00-4.39.75l-.67.21-.49.17a4.5 4.5 0 00-.48.16l-.74.26-.58.21-.62.24-.21.08h-.15a2 2 0 00-.71.53 2.08 2.08 0 00-.44.83 1 1 0 000 .52 1 1 0 001.28.7h.08a7.4 7.4 0 012-.3h1.47a2.12 2.12 0 01.45.11h.39l.12.06h.19l.1.07a.9.9 0 01.15.19v.06a.16.16 0 010 .07v.06a.93.93 0 010 .1.61.61 0 01.05.12v.34a.59.59 0 010 .13.42.42 0 000 .12.28.28 0 010 .09 4.53 4.53 0 01.05.53v.41a9.77 9.77 0 01-.24 2.15c-.17.78-.33 1.59-.57 2.48l-2.59 9.15a22.8 22.8 0 00-.51 2.59 15.23 15.23 0 00-.14 2.24 5.82 5.82 0 002.07 4.63 8.47 8.47 0 005.82 1.84 13 13 0 004.32-.65l1.09.59.17-.06.36-.13.19-.07c.25-.08.52-.18.8-.29l.58-.22.21-.07 1.15-.45a2 2 0 001.23-1.41.91.91 0 000-.49 1 1 0 00-1-.75.84.84 0 00-.27 0 9.74 9.74 0 01-2.15.34 4.4 4.4 0 01-2.79-.68 3.13 3.13 0 01-.81-2.49 12.4 12.4 0 01.24-2.1 21.22 21.22 0 01.57-2.51l2.55-9.12a12.89 12.89 0 00.55-2.75c.07-1 .13-1.7.13-2.11a5.94 5.94 0 00-2-4.66A8.38 8.38 0 0038 32.16z"/></svg>