<svg width="105" height="23" fill="none" xmlns="http://www.w3.org/2000/svg"><g clip-path="url(#clip0_624_431)" fill="#fff"><path d="M5.42 22.917A5.465 5.465 0 011.566 21.5a4.914 4.914 0 01-1.201-1.724A4.855 4.855 0 010 17.716c-.028-.701.097-1.4.367-2.049a4.883 4.883 0 011.199-1.712A5.505 5.505 0 015.42 12.53a4.72 4.72 0 012.42.543 4.638 4.638 0 011.796 1.69l-1.807.965a2.89 2.89 0 00-1.004-.942 2.753 2.753 0 00-1.413-.372 3.058 3.058 0 00-1.242.227 3.02 3.02 0 00-1.039.707 3.289 3.289 0 00-.69 1.099 3.243 3.243 0 00-.209 1.276 3.253 3.253 0 00.899 2.375 3.036 3.036 0 002.289.934c.423 0 .842-.078 1.237-.23.343-.117.66-.3.931-.537v-1.227h-2.69v-1.869h4.818v3.856A5.567 5.567 0 017.78 22.44a5.64 5.64 0 01-2.36.477zm13.562-.198h-7.226v-10.03h7.226v1.884h-5.034v2.121h4.922v1.876h-4.922v2.273h5.034v1.876zm11.106 0H28l-4.818-6.547v6.547h-2.168v-10.03h2.192l4.714 6.333v-6.333h2.168v10.03zm4.48 0H32.4v-10.03h2.168v10.03zm10.342-.942a4.714 4.714 0 01-1.6.9 4.76 4.76 0 01-1.828.224 4.746 4.746 0 01-1.83-.227 4.7 4.7 0 01-1.599-.905 4.077 4.077 0 01-.903-1.405 4.032 4.032 0 01-.261-1.643v-6.033h2.2v5.962a2.343 2.343 0 00.626 1.725 2.35 2.35 0 001.767.642 2.353 2.353 0 001.758-.642 2.368 2.368 0 00.619-1.725v-5.961h2.208v6.016a4.05 4.05 0 01-.254 1.655 4.094 4.094 0 01-.902 1.417zm7.083 1.123a5.824 5.824 0 01-2.32-.349 5.76 5.76 0 01-1.984-1.233l1.172-1.623c.41.434.907.78 1.46 1.013a4.35 4.35 0 001.752.34c.47.028.936-.091 1.333-.34a.949.949 0 00.466-.792.783.783 0 00-.434-.673 3.123 3.123 0 00-1.084-.388 14.097 14.097 0 01-1.413-.348 11.762 11.762 0 01-1.413-.515 2.567 2.567 0 01-1.122-.962 2.515 2.515 0 01-.396-1.412 2.706 2.706 0 01.27-1.21c.182-.377.45-.708.782-.967a4.232 4.232 0 012.81-.88 5.67 5.67 0 013.967 1.402l-1.204 1.583a4.232 4.232 0 00-2.963-1.171 1.818 1.818 0 00-1.068.269.866.866 0 00-.378.736.706.706 0 00.434.61c.337.183.704.309 1.084.372.475.092.944.21 1.405.356.48.148.949.325 1.405.53.459.21.846.545 1.115.967.27.421.41.91.403 1.408a2.89 2.89 0 01-.252 1.282c-.18.403-.452.76-.792 1.046a4.556 4.556 0 01-3.035.95zm10.374-.181h-2.143v-8.146h-3.012v-1.885h8.118v1.885h-2.962v8.146zm12.671-.942a5.738 5.738 0 01-3.424 1.13 5.738 5.738 0 01-3.425-1.13 4.078 4.078 0 01-.903-1.405 4.033 4.033 0 01-.261-1.643v-6.04h2.192v5.96a2.344 2.344 0 00.642 1.718 2.351 2.351 0 001.767.642 2.349 2.349 0 001.766-.642 2.37 2.37 0 00.619-1.725v-5.954h2.192v6.017a4.05 4.05 0 01-.257 1.656c-.2.528-.51 1.01-.907 1.416zm7.484.942h-4.015v-10.03h4.015a5.531 5.531 0 013.895 1.385c.5.466.891 1.032 1.15 1.66a4.69 4.69 0 01.351 1.982 4.688 4.688 0 01-.349 1.975 4.747 4.747 0 01-1.144 1.658 5.54 5.54 0 01-3.903 1.37zm0-1.876c.431.02.861-.05 1.263-.205a3.047 3.047 0 001.066-.698 3.141 3.141 0 00.859-2.224 3.14 3.14 0 00-.803-2.265 3.074 3.074 0 00-1.08-.688 3.11 3.11 0 00-1.273-.19h-1.847v6.27h1.815zm9.411 1.876h-2.168v-10.03h2.168v10.03zm7.139.181a5.253 5.253 0 01-2.056-.347 5.195 5.195 0 01-1.75-1.117 5.007 5.007 0 01-1.145-1.706 4.95 4.95 0 01-.357-2.015 4.95 4.95 0 01.357-2.014 5.007 5.007 0 011.145-1.707 5.665 5.665 0 013.814-1.47 5.67 5.67 0 013.814 1.47 5.005 5.005 0 011.14 1.708 4.94 4.94 0 01.353 2.013 4.949 4.949 0 01-.355 2.02 5.02 5.02 0 01-1.146 1.709 5.23 5.23 0 01-1.757 1.112 5.283 5.283 0 01-2.057.345zm-2.233-2.826a3.161 3.161 0 004.48 0 3.36 3.36 0 00.852-2.375 3.36 3.36 0 00-.851-2.375 3.122 3.122 0 00-1.024-.69 3.164 3.164 0 00-3.457.69 3.374 3.374 0 00-.843 2.376 3.374 3.374 0 00.843 2.374zM56.674 6.197h-.465v-.61a1.686 1.686 0 01-1.652.68 1.66 1.66 0 01-.95-.521 2.141 2.141 0 01-.474-1.457 2.148 2.148 0 01.474-1.457 1.625 1.625 0 012.056-.332c.234.126.435.305.586.522V.917h.425v5.28zm-1.702-.277c.262 0 .52-.068.747-.198a1.42 1.42 0 00.49-.483V3.347a1.43 1.43 0 00-.53-.49 1.485 1.485 0 00-.747-.199 1.203 1.203 0 00-.988.46 1.842 1.842 0 00-.37 1.17c-.015.422.115.835.37 1.173a1.194 1.194 0 001.028.459zm3.413-4.148a.31.31 0 01-.225-.064.301.301 0 01-.096-.221.289.289 0 01.096-.254.314.314 0 01.225-.087.317.317 0 01.303.185.297.297 0 01.004.239.31.31 0 01-.3.194l-.007.008zm.233 4.425H58.2V2.373h.417v3.824zm3.019 1.551a2.596 2.596 0 01-.86-.118 1.832 1.832 0 01-.674-.46l.241-.332c.148.18.338.32.554.412.236.089.487.132.739.126.34.013.672-.094.94-.3a1.109 1.109 0 00.377-.91v-.61a1.693 1.693 0 01-.578.522 1.551 1.551 0 01-.803.198 1.626 1.626 0 01-1.253-.546c-.332-.41-.5-.925-.474-1.449a2.133 2.133 0 01.474-1.449 1.604 1.604 0 011.253-.554 1.622 1.622 0 011.349.713v-.618h.425v3.792a1.423 1.423 0 01-.482 1.203 1.97 1.97 0 01-1.228.38zm0-1.844c.28-.004.553-.086.787-.238.216-.116.399-.285.53-.49v-1.83a1.429 1.429 0 00-.53-.49 1.486 1.486 0 00-.747-.198 1.211 1.211 0 00-.988.46 1.827 1.827 0 00-.369 1.17c-.017.422.113.836.37 1.173a1.195 1.195 0 00.987.443h-.04zm3.404-4.132a.308.308 0 01-.184-.064.301.301 0 01-.097-.221.289.289 0 01.097-.254.315.315 0 01.184-.087.317.317 0 01.303.185.304.304 0 01-.065.343.313.313 0 01-.23.09l-.008.008zm.21 4.425h-.418V2.373h.417v3.824zm2.384.095c-.509 0-.763-.277-.763-.831V2.737h-.642v-.364h.642V1.328h.426v1.045h.803v.364h-.803v2.66c0 .349.134.523.401.523a.57.57 0 00.434-.182l.16.316a.931.931 0 01-.658.238zm4.449-.095h-.418v-.451a1.702 1.702 0 01-1.317.546 1.425 1.425 0 01-.947-.348 1.164 1.164 0 01-.41-.935 1.133 1.133 0 01.402-.926c.264-.22.6-.338.947-.332a1.707 1.707 0 011.317.546v-.792a.781.781 0 00-.297-.641 1.16 1.16 0 00-.747-.238 1.577 1.577 0 00-1.22.563l-.233-.285a1.952 1.952 0 011.501-.626c.366-.014.726.094 1.02.309a1.11 1.11 0 01.394.918l.008 2.692zm-1.606-.23a1.415 1.415 0 001.172-.522v-.84a1.386 1.386 0 00-1.156-.522 1.098 1.098 0 00-.803.27.885.885 0 00-.29.68.868.868 0 00.29.673 1.096 1.096 0 00.803.261h-.016zm3.525.23h-.418V.917h.418v5.28zm6.664 0h-.417v-.451a1.704 1.704 0 01-1.317.546 1.433 1.433 0 01-.948-.348 1.166 1.166 0 01-.41-.934 1.135 1.135 0 01.402-.927c.265-.22.602-.338.948-.332a1.708 1.708 0 011.317.546v-.792a.782.782 0 00-.297-.64 1.151 1.151 0 00-.739-.238 1.577 1.577 0 00-1.22.562l-.233-.285a1.951 1.951 0 011.493-.641c.366-.015.726.094 1.02.308a1.109 1.109 0 01.393.919l.008 2.707zm-1.606-.23a1.407 1.407 0 001.173-.522v-.84a1.398 1.398 0 00-1.156-.522 1.099 1.099 0 00-.803.27.888.888 0 00-.29.68.868.868 0 00.29.673 1.097 1.097 0 00.802.261h-.016zm4.649 1.781a2.596 2.596 0 01-.858-.118 1.824 1.824 0 01-.675-.46l.24-.332c.147.179.334.32.547.412.238.09.492.133.747.126.34.013.672-.094.94-.3a1.108 1.108 0 00.377-.911v-.61a1.71 1.71 0 01-.579.523 1.543 1.543 0 01-.802.198 1.626 1.626 0 01-1.253-.546 2.129 2.129 0 01-.474-1.45 2.134 2.134 0 01.474-1.448 1.604 1.604 0 011.244-.554 1.617 1.617 0 011.349.712v-.617h.426v3.792a1.423 1.423 0 01-.49 1.203c-.35.256-.776.39-1.212.38zm0-1.844c.263 0 .52-.068.748-.198.216-.116.398-.285.53-.491V3.347a1.429 1.429 0 00-.53-.491 1.486 1.486 0 00-.747-.198 1.203 1.203 0 00-.988.46 1.827 1.827 0 00-.37 1.17c-.017.422.114.835.37 1.172a1.194 1.194 0 001.028.444h-.04zm4.955.388a1.862 1.862 0 01-1.397-.562 2.014 2.014 0 01-.546-1.449 2.026 2.026 0 01.53-1.417 1.71 1.71 0 011.333-.586 1.675 1.675 0 011.34.578c.335.41.51.923.49 1.449v.11h-3.211c.009.403.166.788.441 1.085a1.398 1.398 0 001.076.436 1.674 1.674 0 001.213-.53l.217.268a2.017 2.017 0 01-1.486.618zm1.333-2.209a1.57 1.57 0 00-.37-1.005 1.25 1.25 0 00-1.035-.452 1.252 1.252 0 00-1.004.444 1.649 1.649 0 00-.401 1.005l2.81.008zm4.754 2.114h-.418V3.608a.951.951 0 00-.24-.744 1.013 1.013 0 00-.7-.214c-.25.003-.496.069-.714.19a1.54 1.54 0 00-.546.467v2.89h-.418V2.373h.418v.578c.174-.192.384-.35.618-.467.245-.137.522-.208.803-.206a1.115 1.115 0 01.907.333 1.081 1.081 0 01.29.91v2.676zm3.148.095a1.756 1.756 0 01-1.358-.578 2.056 2.056 0 01-.522-1.433 2.04 2.04 0 01.522-1.433A1.734 1.734 0 0197.9 2.27a1.69 1.69 0 011.373.65l-.289.253a1.26 1.26 0 00-1.06-.53 1.342 1.342 0 00-1.067.459 1.726 1.726 0 00-.402 1.171c-.015.426.128.842.402 1.172a1.315 1.315 0 001.067.467 1.267 1.267 0 001.06-.538l.29.253a1.656 1.656 0 01-.605.498 1.682 1.682 0 01-.769.167zm2.248 1.401l.072-.38a.81.81 0 00.337.063.557.557 0 00.345-.103.862.862 0 00.249-.364l.306-.68-1.647-3.856h.466l1.413 3.34 1.398-3.34h.497l-2.007 4.663a1.011 1.011 0 01-.375.517 1.034 1.034 0 01-.613.195 1.452 1.452 0 01-.441-.055z"/></g><defs><clipPath id="clip0_624_431"><path fill="#fff" transform="translate(0 .917)" d="M0 0h104.395v22H0z"/></clipPath></defs></svg>