<svg id="Слой_1" data-name="Слой 1" xmlns="http://www.w3.org/2000/svg" viewBox="0 0 36.5 36.31"><path d="M31.34 6.13H5.15a3.56 3.56 0 000 7.12h26.19a3.56 3.56 0 000-7.12z" stroke-width="3.18" fill="none" stroke="#4a208c" stroke-miterlimit="10"/><path d="M26.62 34.74H9.16a3 3 0 01-1.94-.72 3 3 0 01-1-1.83l-1.1-19h26.22l-1.81 19a2.95 2.95 0 01-2.91 2.55zM12.97 5.44a3.88 3.88 0 013.85-3.85h2.81a3.88 3.88 0 013.89 3.85v.35" stroke-width="3.15" fill="none" stroke="#4a208c" stroke-miterlimit="10"/><path d="M18.19 17.76v11.75m-5.74-11.75v11.75m11.47-11.75v11.75" stroke-linecap="round" stroke-width="3.18" fill="none" stroke="#4a208c" stroke-miterlimit="10"/></svg>