<svg id="Слой_2" data-name="Слой 2" xmlns="http://www.w3.org/2000/svg" viewBox="0 0 461.31 507.58"><defs><style>.cls-1{fill:none;stroke:#fff;stroke-linecap:round;stroke-linejoin:round;stroke-width:44px}</style></defs><path class="cls-1" d="M177.06 373C89.42 336.84-39.22 243.83 55 22c0 0 168.42 26 216.17 153.29"/><path class="cls-1" d="M113.16 134.17l32.58 64.24 15.48 30.51 26.98 53.18m-42.45-83.69l-54.67-4.79m70.1 35.39l27.45-47.52m-4.75 115.62l-42.85-3.75"/><path class="cls-1" d="M188.5 451.57c-22.21-84.57-41.44-276.8 223.87-321.19 0 0 126.77 288.45-169.68 354.09a45.73 45.73 0 01-54.19-32.9zm19.49 26.74l141.05-238.6m-36.66 62.01l-25.34-48.67m0 91.8l54.82-2.38m-86.74 54.98l-25.35-48.67"/></svg>