<svg id="Слой_1" data-name="Слой 1" xmlns="http://www.w3.org/2000/svg" viewBox="0 0 460.53 463.17"><defs><style>.cls-3{fill:none;stroke:#fff;stroke-linecap:round;stroke-linejoin:round;stroke-width:18.03px}</style></defs><path d="M229.76 305.79h0a83.11 83.11 0 0183.11 83.11h0v49.85H146.66v-49.86a83.12 83.12 0 0183.1-83.1z" stroke-width="48.83" stroke-miterlimit="10" fill="none" stroke="#fff"/><path stroke-width="44" stroke-linecap="round" stroke-miterlimit="10" fill="none" stroke="#fff" d="M438.53 251.79L22 248"/><path class="cls-3" d="M77.88 154c-35.88-14.85-88.63-53-50-143.87 0 0 69 10.66 88.59 62.82"/><path class="cls-3" d="M51.7 56.1l13.35 26.33 6.34 12.5 11.06 21.8m-17.4-34.3l-22.4-1.96m28.73 14.5L82.63 75.5m-1.95 47.38l-17.56-1.54"/><path class="cls-3" d="M82.57 186.17c-9.1-34.64-17-113.43 91.74-131.62 0 0 51.95 118.2-69.53 145.1a18.73 18.73 0 01-22.21-13.48zm7.99 10.96l57.8-97.78m-15.02 25.42l-10.39-19.95m0 37.62l22.47-.97M109.87 164l-10.39-19.95"/><path d="M310.53 208.19v-97.86m64 98.34V75.5m64 131.19V75.5" stroke-width="44" stroke-miterlimit="10" fill="none" stroke="#fff"/><path d="M447.81 12.63v96.08h-18.62V12.63h18.66M460.48 0h-44v121.33h43.92V0z" fill="#fff"/></svg>