<svg id="Слой_1" data-name="Слой 1" xmlns="http://www.w3.org/2000/svg" viewBox="0 0 460.53 463.17"><defs><style>.cls-1,.cls-2,.cls-3,.cls-4{fill:none;stroke:#fff;}.cls-1,.cls-2,.cls-4{stroke-miterlimit:10;}.cls-1{stroke-width:48.83px;}.cls-2,.cls-3{stroke-linecap:round;}.cls-2,.cls-4{stroke-width:44px;}.cls-3{stroke-linejoin:round;stroke-width:18.03px;}.cls-5{fill:#fff;}</style></defs><title>balance</title><path class="cls-1" d="M229.76,305.79h0a83.11,83.11,0,0,1,83.11,83.11h0v49.85H146.66V388.89A83.12,83.12,0,0,1,229.76,305.79Z"/><line class="cls-2" x1="438.53" y1="251.79" x2="22" y2="248"/><path class="cls-3" d="M77.88,154C42,139.15-10.75,101,27.88,10.13c0,0,69,10.66,88.59,62.82"/><polyline class="cls-3" points="51.7 56.1 65.05 82.43 71.39 94.93 82.45 116.73"/><line class="cls-3" x1="65.05" y1="82.43" x2="42.65" y2="80.47"/><line class="cls-3" x1="71.38" y1="94.97" x2="82.63" y2="75.5"/><line class="cls-3" x1="80.68" y1="122.88" x2="63.12" y2="121.34"/><path class="cls-3" d="M82.57,186.17c-9.1-34.64-17-113.43,91.74-131.62,0,0,51.95,118.2-69.53,145.1A18.73,18.73,0,0,1,82.57,186.17Z"/><line class="cls-3" x1="90.56" y1="197.13" x2="148.36" y2="99.35"/><line class="cls-3" x1="133.34" y1="124.77" x2="122.95" y2="104.82"/><line class="cls-3" x1="122.95" y1="142.44" x2="145.42" y2="141.47"/><line class="cls-3" x1="109.87" y1="164" x2="99.48" y2="144.05"/><line class="cls-4" x1="310.53" y1="208.19" x2="310.53" y2="110.33"/><line class="cls-4" x1="374.53" y1="208.67" x2="374.53" y2="75.5"/><line class="cls-4" x1="438.53" y1="206.69" x2="438.53" y2="75.5"/><path class="cls-5" d="M447.81,12.63v96.08H429.19V12.63h18.66M460.48,0h-44V121.33h43.92V0Z"/></svg>