<svg id="Слой_2" data-name="Слой 2" xmlns="http://www.w3.org/2000/svg" viewBox="0 0 459.62 487.59"><defs><style>.cls-1,.cls-2{fill:none;stroke:#fff;stroke-width:38px;}.cls-1{stroke-linejoin:round;}.cls-2{stroke-miterlimit:10;}.cls-3{fill:#fff;}</style></defs><title>coal</title><polygon class="cls-1" points="19 429.37 91.08 468.59 206.89 449.8 206.89 305.18 134.73 268.34 19 284.93 19 429.37"/><polyline class="cls-1" points="14.69 282.75 82.79 323.54 206.89 305.18"/><line class="cls-1" x1="88.59" y1="323.54" x2="88.2" y2="475.57"/><polygon class="cls-1" points="440.62 429.37 368.54 468.59 252.74 449.8 252.74 305.18 324.9 268.34 440.62 284.93 440.62 429.37"/><polyline class="cls-2" points="444.94 281.5 371.03 323.54 246.94 305.18"/><line class="cls-2" x1="371.03" y1="323.54" x2="371.42" y2="475.57"/><path class="cls-3" d="M227.94,0c-3.4,6.14-6.49,12.17-9.35,18.19a192.09,192.09,0,0,0-7.46,18,119.09,119.09,0,0,0-4.87,17.69,71.86,71.86,0,0,0-1.32,16.69,49.21,49.21,0,0,0,2.9,14.7A50.35,50.35,0,0,0,214.76,98a73.6,73.6,0,0,0,10.57,11.39c2.06,1.78,4.15,3.57,6.44,5.23l1.68,1.28,1.76,1.24c1.15.84,2.36,1.63,3.58,2.42l4.31,2.89c1.58,1,3.13,2.18,4.69,3.3,3.08,2.29,6.1,4.78,9.06,7.38a98,98,0,0,1,16,18.44A75,75,0,0,1,279,162.81a68.29,68.29,0,0,1,4.2,12.37,66.41,66.41,0,0,1,1,25.74,74.3,74.3,0,0,1-7.58,22.93,92.6,92.6,0,0,1-12.69,18.57,108,108,0,0,1-15.85,14.67A89.89,89.89,0,0,1,229.94,268c3.65-6,7-11.9,10.07-17.79a181.93,181.93,0,0,0,8.06-17.7,105.2,105.2,0,0,0,5.18-17.38,62.27,62.27,0,0,0,1.17-16.23c-.74-10.19-4.53-18.54-10.89-26.32a66.77,66.77,0,0,0-5.23-5.67c-1.86-1.85-3.92-3.64-6-5.39-1.11-.85-2.15-1.75-3.29-2.59s-2.24-1.71-3.45-2.5-2.33-1.67-3.57-2.45l-4.08-2.69c-1.59-1-3.16-2.11-4.72-3.27l-2.33-1.69-2.3-1.8a113.6,113.6,0,0,1-8.88-7.82,96.58,96.58,0,0,1-8.16-9,83.49,83.49,0,0,1-7.09-10.32,74,74,0,0,1-5.54-11.57,68.24,68.24,0,0,1-3.5-12.46,70.59,70.59,0,0,1-.12-25.27,80.45,80.45,0,0,1,7.48-22.59A99.24,99.24,0,0,1,195,26.81a112.84,112.84,0,0,1,15.26-15.18A91.77,91.77,0,0,1,227.94,0Z"/><path class="cls-3" d="M312.65,12c-1.49,4.33-2.85,8.39-4.07,12.35s-2.23,7.81-3,11.52a69.7,69.7,0,0,0-1.5,10.57,39.29,39.29,0,0,0,.44,9,22.6,22.6,0,0,0,2.33,6.87,29.15,29.15,0,0,0,3.78,5.56A62.54,62.54,0,0,0,323.41,78.5l5.71,4c1,.69,2,1.6,3,2.41s2,1.66,3,2.51a65.15,65.15,0,0,1,10.66,12.7l1.15,1.82,1.05,2c.35.66.67,1.33,1,2a19,19,0,0,1,.92,2c.55,1.42,1.11,2.83,1.59,4.26s.79,3,1.15,4.45a45.71,45.71,0,0,1,.17,17.94,46.9,46.9,0,0,1-5.87,15.32,54,54,0,0,1-9.27,11.59,59.47,59.47,0,0,1-11.17,8.33,47.79,47.79,0,0,1-12.6,5.29c1.67-4.26,3.18-8.27,4.54-12.18s2.51-7.7,3.39-11.35a60.48,60.48,0,0,0,1.66-10.35,31.5,31.5,0,0,0-.56-8.56,22.13,22.13,0,0,0-2.48-6.28,28.26,28.26,0,0,0-4.06-5.24,58,58,0,0,0-5.89-5.3c-.61-.42-1.21-.87-1.81-1.31a22.23,22.23,0,0,0-1.85-1.33l-4.38-3a76.53,76.53,0,0,1-12-9.76c-.95-1-1.9-1.89-2.81-2.93s-1.78-2.14-2.64-3.24a36.88,36.88,0,0,1-2.48-3.46c-.4-.6-.79-1.2-1.17-1.81a19.48,19.48,0,0,1-1.1-1.87c-.69-1.31-1.37-2.62-2-3.93s-1.11-2.78-1.65-4.17c-.25-.71-.54-1.39-.73-2.12s-.39-1.46-.58-2.19a35,35,0,0,1-.92-4.42c-.12-.74-.22-1.49-.31-2.23a20.75,20.75,0,0,1-.2-2.23c0-1.48-.12-3-.09-4.43s.21-2.91.34-4.35.47-2.81.72-4.19a50.81,50.81,0,0,1,5.79-14.84A57.89,57.89,0,0,1,289.5,26.5a61.51,61.51,0,0,1,10.81-8.68A49,49,0,0,1,312.65,12Z"/><path class="cls-3" d="M134.52,71.93c-1.49,4.33-2.84,8.39-4.06,12.35s-2.24,7.81-3,11.52a72.31,72.31,0,0,0-1.5,10.57,38.74,38.74,0,0,0,.45,9,22.66,22.66,0,0,0,2.33,6.88,29,29,0,0,0,3.77,5.55,62.63,62.63,0,0,0,12.77,10.7l5.72,4c1,.69,2,1.6,3,2.41s2,1.66,3,2.51a65.15,65.15,0,0,1,10.66,12.7l1.16,1.83,1,2c.35.66.67,1.33,1,2a18.85,18.85,0,0,1,.92,2.05c.56,1.42,1.11,2.83,1.59,4.26s.79,3,1.15,4.46a45.66,45.66,0,0,1,.17,17.93,46.91,46.91,0,0,1-5.85,15.27,54,54,0,0,1-9.26,11.54,59,59,0,0,1-11.17,8.33,47.79,47.79,0,0,1-12.6,5.29c1.67-4.26,3.18-8.27,4.55-12.18a115.44,115.44,0,0,0,3.38-11.35,59.37,59.37,0,0,0,1.66-10.35,31.11,31.11,0,0,0-.56-8.56,21.56,21.56,0,0,0-2.48-6.28,28.26,28.26,0,0,0-4.06-5.24,57.79,57.79,0,0,0-5.88-5.29c-.62-.43-1.22-.88-1.82-1.32a22.23,22.23,0,0,0-1.85-1.33l-4.37-2.94a76.59,76.59,0,0,1-12-9.77c-.94-1-1.9-1.89-2.8-2.93s-1.79-2.14-2.65-3.24a38.24,38.24,0,0,1-2.48-3.46c-.4-.6-.79-1.2-1.17-1.81a19.48,19.48,0,0,1-1.1-1.87c-.67-1.33-1.33-2.64-2-3.93s-1.12-2.78-1.66-4.17c-.24-.71-.53-1.38-.73-2.12s-.39-1.46-.58-2.19a34.88,34.88,0,0,1-.92-4.41c-.12-.75-.21-1.49-.31-2.24a20.75,20.75,0,0,1-.2-2.23c0-1.48-.12-3-.09-4.43s.21-2.91.34-4.35.47-2.81.72-4.19a50.83,50.83,0,0,1,5.8-14.84,56.94,56.94,0,0,1,8.87-11.56,60.67,60.67,0,0,1,10.81-8.69A48.53,48.53,0,0,1,134.52,71.93Z"/></svg>