<svg id="Слой_1" data-name="Слой 1" xmlns="http://www.w3.org/2000/svg" viewBox="0 0 462.56 511.73"><defs><style>.cls-1,.cls-2{fill:none;stroke:#fff;stroke-miterlimit:10;}.cls-1{stroke-width:44.63px;}.cls-2{stroke-width:40px;}.cls-3{fill:#fff;}</style></defs><title>hookah</title><path class="cls-1" d="M313.68,438.09a87,87,0,0,1-16.76,51.32H163.08a87,87,0,0,1-16.76-51.32,83.68,83.68,0,0,1,167.36,0Z" transform="translate(0.43)"/><rect class="cls-1" x="167.76" y="281.74" width="124" height="72.67" rx="36.33" ry="36.33"/><path class="cls-2" d="M229.33,109.08h0A53.86,53.86,0,0,1,176.55,66l-9.22-45.22h124L282.12,66A53.87,53.87,0,0,1,229.33,109.08Z" transform="translate(0.43)"/><line class="cls-2" x1="229.76" y1="109.07" x2="230.43" y2="281.74"/><polygon class="cls-3" points="430.43 0.82 390.43 0 389.73 34.41 429.74 34.41 430.43 0.82"/><path class="cls-3" d="M386.88,140.74a41,41,0,0,1-40.41,35.52h-.11L81,175.57h-.21a80.76,80.76,0,0,0-.91,161.52l87.26,1,.45-40-87.26-1a40.76,40.76,0,0,1,.43-81.52h.11l265.39.69h.21a80.75,80.75,0,0,0,80.58-75.52Z" transform="translate(0.43)"/><rect class="cls-2" x="377.76" y="41.74" width="64.8" height="96.12" rx="32.4" ry="32.4"/></svg>