<svg id="Capa_1" data-name="Capa 1" xmlns="http://www.w3.org/2000/svg" viewBox="0 0 80.35 80.35"><defs><style>.cls-1{fill:#f6f4f9;}</style></defs><title>info</title><path class="cls-1" d="M40.17,2.5A37.68,37.68,0,1,1,2.5,40.17,37.72,37.72,0,0,1,40.17,2.5m0-2.5A40.18,40.18,0,1,0,80.35,40.17,40.18,40.18,0,0,0,40.17,0Z" transform="translate(0)"/><path class="cls-1" d="M43.86,18a3.66,3.66,0,0,1,2.53,1,3,3,0,0,1,1,2.27,2.88,2.88,0,0,1-1,2.2,4,4,0,0,1-5.33,0,3,3,0,0,1,0-4.46,3.78,3.78,0,0,1,2.62-1h.14m0-2.5h-.18a6.23,6.23,0,0,0-4.29,1.7,5.48,5.48,0,0,0,0,8.12,6.51,6.51,0,0,0,8.71,0,5.49,5.49,0,0,0,0-8.12,6.14,6.14,0,0,0-4.25-1.7Z" transform="translate(0)"/><path class="cls-1" d="M38,34.66a6.32,6.32,0,0,1,4.08,1.18,3.42,3.42,0,0,1,1.19,2.78c0,.19,0,.63-.06,1.09,0,.25,0,.54-.06.81a11.09,11.09,0,0,1-.44,2.21v0l0,0-2.54,9.08a22.17,22.17,0,0,0-.63,2.77,14.93,14.93,0,0,0-.27,2.49v.06A5.41,5.41,0,0,0,41,61.6a3.93,3.93,0,0,0,.66.47,12.57,12.57,0,0,1-2.33.2,6,6,0,0,1-4.14-1.2l0,0,0,0a3.34,3.34,0,0,1-1.2-2.74A13.06,13.06,0,0,1,34,56.4a22.4,22.4,0,0,1,.45-2.28L37.06,45c.23-.84.39-1.59.55-2.32l.06-.27A12.74,12.74,0,0,0,38,39.69v-.53c0-.22,0-.44-.06-.65a2.72,2.72,0,0,0-.07-.43V38l0-.14c0-.1,0-.19-.07-.25a1.8,1.8,0,0,0-.06-.22v-.13l0-.13v-.07l-.12-.28-.06-.13a.83.83,0,0,1-.07-.13l0-.11-.06-.08,0,0-.12-.19a2.88,2.88,0,0,0-.3-.39.39.39,0,0,1-.08-.1l-.05,0,0,0-.05-.06,0,0-.09-.09-.07,0,0,0h0l-.1-.08,0,0L35.92,35l0,0-.12-.07A11.34,11.34,0,0,1,38,34.66m0-2.5a14.3,14.3,0,0,0-4.39.75l-.67.21-.49.17a4.5,4.5,0,0,0-.48.16l-.74.26-.58.21-.62.24-.21.08-.09,0-.06,0a2,2,0,0,0-.71.53,2.08,2.08,0,0,0-.44.83v0h0a1,1,0,0,0,0,.52,1,1,0,0,0,1.28.7l.08,0a7.4,7.4,0,0,1,2-.3h.49c.17,0,.33,0,.48,0l.18,0,.16,0,.16,0a2.12,2.12,0,0,1,.45.11l.13,0,.13,0,.06,0,.07,0,.12.06.07,0,.06,0,.06,0,.1.07,0,0,0,0,0,0,0,0,0,0,0,0a.9.9,0,0,1,.15.19l0,.06a.16.16,0,0,1,0,.07.05.05,0,0,1,0,0s0,0,0,.06a.93.93,0,0,1,0,.1.61.61,0,0,1,.05.12v0l0,.11a0,0,0,0,1,0,0s0,.07,0,.11v0l0,.12a.59.59,0,0,1,0,.13.42.42,0,0,0,0,.12.28.28,0,0,1,0,.09,4.53,4.53,0,0,1,.05.53v.41a9.77,9.77,0,0,1-.24,2.15c-.17.78-.33,1.59-.57,2.48l-2.59,9.15a22.8,22.8,0,0,0-.51,2.59,15.23,15.23,0,0,0-.14,2.24,5.82,5.82,0,0,0,2.07,4.63,8.47,8.47,0,0,0,5.82,1.84,13,13,0,0,0,4.32-.65L44.1,64l.17-.06.36-.13.19-.07c.25-.08.52-.18.8-.29l.58-.22.21-.07,1.15-.45a2,2,0,0,0,1.23-1.41h0a.91.91,0,0,0,0-.49,1,1,0,0,0-1-.75.84.84,0,0,0-.27,0h0a9.74,9.74,0,0,1-2.15.34,4.4,4.4,0,0,1-2.79-.68,3.13,3.13,0,0,1-.81-2.49,12.4,12.4,0,0,1,.24-2.1,21.22,21.22,0,0,1,.57-2.51l2.55-9.12a12.89,12.89,0,0,0,.55-2.75c.07-1,.13-1.7.13-2.11a5.94,5.94,0,0,0-2-4.66A8.38,8.38,0,0,0,38,32.16Z" transform="translate(0)"/></svg>