<svg width="38" height="27" viewBox="0 0 38 27" fill="none" xmlns="http://www.w3.org/2000/svg">
<path fill-rule="evenodd" clip-rule="evenodd" d="M23.6098 23.6731C26.2527 22.7176 38.2503 17.4635 37.7007 0.979736C23.1684 9.94876 22.4889 19.8839 22.4663 21.2654C22.2233 20.3967 22.54 19.254 22.8805 18.0253C23.3667 16.2712 23.9015 14.3416 22.9258 12.7829C22.155 11.5516 21.6062 11.3062 21.025 11.0463C20.2993 10.7217 19.523 10.3745 18.2005 8.05746C15.3649 3.08817 0 2.69211 0 2.69211C0 2.69211 5.34315 7.0615 5.4811 11.5455C5.60312 15.5286 10.8175 17.9751 10.8175 17.9751C11.0371 22.0339 15.5415 22.1159 18.6267 22.1722C20.027 22.1977 21.1349 22.2179 21.4171 22.6021C22.5696 24.1738 23.3532 26.1726 23.3532 26.1726L24.5621 25.2933C24.5621 25.2933 24.2388 24.8677 23.6098 23.6731Z" fill="#4A208C"/>
</svg>
