<svg width="105" height="23" viewBox="0 0 105 23" fill="none" xmlns="http://www.w3.org/2000/svg">
<g clip-path="url(#clip0_624_431)">
<path d="M5.41998 22.9166C3.99625 22.962 2.61165 22.4529 1.56567 21.4996C1.04467 21.0165 0.635193 20.4285 0.365022 19.7756C0.0948516 19.1226 -0.0296856 18.4201 -0.000137294 17.7155C-0.0283077 17.0146 0.0969635 16.316 0.367156 15.6671C0.637348 15.0182 1.04612 14.4343 1.56567 13.9551C2.61268 13.0026 3.99585 12.4912 5.41998 12.5302C6.26164 12.4923 7.098 12.6799 7.84024 13.0729C8.58248 13.466 9.2029 14.0499 9.63562 14.7626L7.82892 15.7284C7.57627 15.3392 7.23191 15.016 6.82519 14.7864C6.39737 14.5376 5.90864 14.4089 5.41195 14.4143C4.98652 14.4028 4.56343 14.48 4.17041 14.641C3.7774 14.802 3.42335 15.0431 3.13148 15.3485C2.8295 15.6659 2.5945 16.0393 2.44011 16.447C2.28572 16.8547 2.21503 17.2885 2.23215 17.7234C2.21503 18.1583 2.28572 18.5921 2.44011 18.9998C2.5945 19.4076 2.8295 19.781 3.13148 20.0984C3.42426 20.4047 3.77961 20.6464 4.17409 20.8075C4.56858 20.9685 4.99321 21.0452 5.41998 21.0325C5.84304 21.0322 6.26237 20.9544 6.65657 20.8029C6.99968 20.6851 7.31611 20.5022 7.58802 20.2646V19.0375H4.89804V17.1693H9.71592V21.0246C9.18314 21.6298 8.52253 22.1127 7.78042 22.4395C7.03831 22.7664 6.23267 22.9292 5.41998 22.9166Z" fill="white"/>
<path d="M18.9824 22.7187H11.7556V12.6885H18.9824V14.5726H13.9478V16.6942H18.87V18.5704H13.9478V20.8425H18.9824V22.7187Z" fill="white"/>
<path d="M30.0877 22.7187H28L23.1821 16.1717V22.7187H21.014V12.6885H23.2062L27.9197 19.0217V12.6885H30.0877V22.7187Z" fill="white"/>
<path d="M34.5683 22.7187H32.4003V12.6885H34.5683V22.7187Z" fill="white"/>
<path d="M44.9106 21.7766C44.4426 22.1779 43.8987 22.4838 43.3102 22.6767C42.7218 22.8697 42.1003 22.9458 41.4819 22.9008C40.8628 22.9456 40.2408 22.8686 39.6522 22.6743C39.0635 22.4799 38.52 22.1721 38.0531 21.7687C37.6574 21.3666 37.3499 20.8885 37.1496 20.3641C36.9493 19.8398 36.8605 19.2805 36.8888 18.7209V12.6885H39.089V18.6496C39.0722 18.9638 39.1189 19.2782 39.2265 19.5745C39.334 19.8708 39.5001 20.143 39.7153 20.3754C39.9488 20.5968 40.2264 20.7681 40.5304 20.8785C40.8345 20.9889 41.1584 21.0359 41.4819 21.0167C41.8041 21.0362 42.1269 20.9893 42.4297 20.8789C42.7325 20.7685 43.0086 20.597 43.2404 20.3754C43.4541 20.1424 43.6188 19.8698 43.7249 19.5736C43.8311 19.2774 43.8765 18.9633 43.8587 18.6496V12.6885H46.0669V18.705C46.0986 19.2679 46.0123 19.8311 45.8134 20.3596C45.6144 20.8881 45.3071 21.3705 44.9106 21.7766Z" fill="white"/>
<path d="M51.9929 22.9008C51.2037 22.9427 50.4141 22.8238 49.6736 22.5513C48.933 22.2789 48.2574 21.8589 47.689 21.3175L48.8613 19.6946C49.2707 20.1294 49.7681 20.4746 50.3214 20.7078C50.8747 20.941 51.4715 21.057 52.0732 21.0483C52.5428 21.0756 53.0091 20.9565 53.4062 20.7079C53.5457 20.6258 53.6616 20.5101 53.7431 20.3716C53.8246 20.2331 53.8689 20.0763 53.8719 19.9162C53.8665 19.7763 53.8235 19.6403 53.7473 19.5221C53.6711 19.4038 53.5645 19.3077 53.4383 19.2433C53.1048 19.0482 52.7371 18.9166 52.3543 18.8554C51.8774 18.7637 51.4056 18.6474 50.941 18.5071C50.4592 18.3658 49.9871 18.1939 49.5278 17.9925C49.0662 17.7874 48.6761 17.4527 48.4062 17.0304C48.1363 16.608 47.9986 16.1166 48.0102 15.6176C48.0054 15.1996 48.0977 14.7861 48.28 14.4088C48.4624 14.0314 48.7299 13.7002 49.0621 13.4405C49.86 12.8217 50.8587 12.5095 51.8725 12.5618C53.329 12.5041 54.7513 13.0065 55.8392 13.963L54.6347 15.5463C53.842 14.7865 52.7773 14.3655 51.6717 14.3747C51.296 14.352 50.9224 14.4461 50.6038 14.6438C50.4835 14.7257 50.386 14.836 50.3201 14.9646C50.2541 15.0932 50.2219 15.2361 50.2264 15.3801C50.2346 15.5112 50.2795 15.6376 50.356 15.7451C50.4325 15.8527 50.5377 15.9373 50.66 15.9897C50.9974 16.1731 51.364 16.2989 51.744 16.3617C52.219 16.4536 52.6882 16.5726 53.1492 16.718C53.6284 16.8657 54.0977 17.0429 54.5544 17.2484C55.0129 17.4577 55.4001 17.7932 55.6694 18.2147C55.9387 18.6361 56.0785 19.1253 56.0721 19.6233C56.0868 20.0637 56.0006 20.5017 55.8199 20.9047C55.6392 21.3076 55.3685 21.6652 55.0282 21.9508C54.1672 22.6206 53.0882 22.9583 51.9929 22.9008Z" fill="white"/>
<path d="M62.3675 22.7187H60.2236V14.5726H57.2124V12.6885H65.3305V14.5726H62.3675V22.7187Z" fill="white"/>
<path d="M75.0385 21.7766C74.052 22.5107 72.8498 22.9077 71.6138 22.9077C70.3779 22.9077 69.1756 22.5107 68.1891 21.7766C67.7934 21.3745 67.4858 20.8964 67.2855 20.3721C67.0852 19.8477 66.9965 19.2884 67.0248 18.7288V12.6885H69.2169V18.6496C69.2034 18.9636 69.2532 19.2772 69.3635 19.572C69.4737 19.8669 69.6423 20.1373 69.8593 20.3675C70.0929 20.5889 70.3704 20.7602 70.6745 20.8706C70.9785 20.9809 71.3025 21.028 71.6259 21.0087C71.9494 21.0295 72.2738 20.9831 72.5781 20.8726C72.8823 20.7622 73.1597 20.5901 73.3924 20.3675C73.6061 20.1345 73.7708 19.8619 73.877 19.5657C73.9831 19.2694 74.0286 18.9554 74.0107 18.6417V12.6885H76.2029V18.705C76.2336 19.2684 76.146 19.832 75.9457 20.3606C75.7453 20.8891 75.4365 21.3712 75.0385 21.7766Z" fill="white"/>
<path d="M82.5222 22.7188H78.5073V12.6886H82.5222C83.9541 12.631 85.352 13.1283 86.4167 14.074C86.9161 14.5401 87.3085 15.1063 87.5675 15.7344C87.8265 16.3626 87.9461 17.0381 87.9182 17.7156C87.946 18.3911 87.8271 19.0648 87.5695 19.6914C87.3119 20.3181 86.9216 20.8833 86.4247 21.3492C85.355 22.2904 83.9545 22.7819 82.5222 22.7188ZM82.5222 20.8426C82.9531 20.8635 83.3835 20.7938 83.785 20.6382C84.1864 20.4826 84.5498 20.2447 84.8509 19.9401C85.4198 19.337 85.728 18.539 85.71 17.7156C85.7539 16.8862 85.4655 16.0731 84.9071 15.4514C84.6002 15.1493 84.2318 14.9148 83.8263 14.7633C83.4207 14.6119 82.9872 14.5469 82.5543 14.5727H80.7075V20.8426H82.5222Z" fill="white"/>
<path d="M91.9332 22.7187H89.7651V12.6885H91.9332V22.7187Z" fill="white"/>
<path d="M99.0716 22.9006C98.3696 22.9232 97.6704 22.8051 97.0161 22.5533C96.3619 22.3016 95.7663 21.9215 95.2655 21.4361C94.7692 20.951 94.3797 20.3702 94.1213 19.73C93.863 19.0898 93.7413 18.4039 93.7639 17.7153C93.7413 17.0266 93.863 16.3408 94.1213 15.7006C94.3797 15.0604 94.7692 14.4796 95.2655 13.9945C96.3039 13.0487 97.6658 12.5234 99.0796 12.5234C100.493 12.5234 101.855 13.0487 102.894 13.9945C103.389 14.4803 103.777 15.0614 104.034 15.7016C104.291 16.3417 104.411 17.0272 104.387 17.7153C104.411 18.4053 104.29 19.0926 104.032 19.7342C103.773 20.3759 103.383 20.958 102.886 21.444C102.382 21.9275 101.785 22.3057 101.129 22.556C100.474 22.8063 99.7741 22.9235 99.0716 22.9006ZM96.8393 20.0744C97.1304 20.3698 97.4787 20.6047 97.8635 20.765C98.2483 20.9254 98.6618 21.008 99.0796 21.008C99.4974 21.008 99.9109 20.9254 100.296 20.765C100.681 20.6047 101.029 20.3698 101.32 20.0744C101.903 19.42 102.207 18.5695 102.171 17.6995C102.207 16.8294 101.903 15.9789 101.32 15.3245C101.029 15.0291 100.681 14.7943 100.296 14.6339C99.9109 14.4735 99.4974 14.3909 99.0796 14.3909C98.6618 14.3909 98.2483 14.4735 97.8635 14.6339C97.4787 14.7943 97.1304 15.0291 96.8393 15.3245C96.2609 15.9809 95.9592 16.8307 95.9962 17.6995C95.9592 18.5682 96.2609 19.418 96.8393 20.0744Z" fill="white"/>
<path d="M56.6743 6.19682H56.2086V5.58725C56.0581 5.79783 55.8602 5.97123 55.6304 6.09391C55.3027 6.26919 54.9245 6.33016 54.5572 6.26693C54.1899 6.2037 53.855 6.01998 53.6069 5.74558C53.2742 5.33321 53.1057 4.81519 53.1332 4.28894C53.1064 3.76278 53.2748 3.24502 53.6069 2.8323C53.8536 2.54506 54.1959 2.35383 54.5726 2.2929C54.9493 2.23197 55.3357 2.30532 55.6625 2.49981C55.8972 2.62574 56.0981 2.80482 56.2487 3.0223V0.916504H56.6743V6.19682ZM54.972 5.91974C55.2343 5.91992 55.4919 5.85164 55.7187 5.72183C55.9197 5.60289 56.0879 5.43705 56.2086 5.23892V3.34687C56.0775 3.14119 55.895 2.97217 55.6786 2.85605C55.4521 2.72553 55.1942 2.65719 54.9318 2.65814C54.742 2.65126 54.5532 2.68937 54.3813 2.76926C54.2095 2.84915 54.0596 2.9685 53.9442 3.1173C53.6902 3.45543 53.56 3.86845 53.5748 4.28894C53.5587 4.7096 53.689 5.12303 53.9442 5.46058C54.064 5.61457 54.2204 5.73703 54.3997 5.81713C54.579 5.89722 54.7756 5.93247 54.972 5.91974Z" fill="white"/>
<path d="M58.3847 1.77173C58.3448 1.77627 58.3044 1.77301 58.2658 1.76214C58.2273 1.75128 58.1912 1.73301 58.1598 1.7084C58.1291 1.68001 58.1047 1.64565 58.0881 1.60751C58.0715 1.56936 58.0631 1.52824 58.0635 1.48674C58.0577 1.43999 58.0634 1.39255 58.0802 1.34845C58.097 1.30435 58.1243 1.26489 58.1598 1.23341C58.1896 1.20494 58.2248 1.18259 58.2634 1.16764C58.302 1.15269 58.3432 1.14544 58.3847 1.14633C58.4274 1.14437 58.4702 1.15109 58.5102 1.16607C58.5503 1.18104 58.5868 1.20396 58.6175 1.23341C58.6472 1.26089 58.6711 1.29396 58.6876 1.33067C58.7042 1.36738 58.7131 1.40699 58.7139 1.44716C58.715 1.48904 58.7074 1.5307 58.6917 1.56961C58.6759 1.60852 58.6523 1.64387 58.6223 1.67349C58.5922 1.70312 58.5564 1.7264 58.5169 1.74193C58.4774 1.75746 58.4352 1.76491 58.3927 1.76382L58.3847 1.77173ZM58.6175 6.19707H58.2V2.37339H58.6175V6.19707Z" fill="white"/>
<path d="M61.6368 7.74846C61.3457 7.75733 61.0551 7.71717 60.7776 7.62971C60.5205 7.52888 60.2899 7.3719 60.1031 7.17055L60.344 6.83806C60.4921 7.01759 60.6822 7.15888 60.8981 7.24972C61.1337 7.33882 61.3846 7.38184 61.6368 7.37638C61.9762 7.38868 62.309 7.2821 62.5763 7.07555C62.7061 6.96267 62.8076 6.82179 62.8731 6.66389C62.9385 6.50598 62.9661 6.3353 62.9537 6.16515V5.55558C62.8049 5.77174 62.6069 5.95065 62.3756 6.07807C62.1314 6.21535 61.8536 6.28381 61.5726 6.27599C61.3359 6.28162 61.1008 6.23556 60.8842 6.14113C60.6677 6.04669 60.475 5.90621 60.32 5.72975C59.9877 5.32016 59.8192 4.80479 59.8462 4.28102C59.8199 3.75736 59.9884 3.24224 60.32 2.8323C60.4742 2.65439 60.6666 2.51242 60.8832 2.41659C61.0998 2.32077 61.3352 2.27349 61.5726 2.27815C61.8398 2.27687 62.1032 2.34137 62.3387 2.46578C62.5743 2.59019 62.7746 2.77059 62.9216 2.99063V2.37314H63.3472V6.16515C63.3676 6.38887 63.3346 6.61419 63.251 6.82312C63.1673 7.03205 63.0353 7.2188 62.8654 7.36846C62.511 7.62797 62.0781 7.76187 61.6368 7.74846ZM61.6368 5.90391C61.9167 5.90025 62.1897 5.81786 62.4238 5.66641C62.6402 5.55029 62.8227 5.38128 62.9537 5.17559V3.34687C62.8227 3.14119 62.6402 2.97217 62.4238 2.85605C62.1972 2.72553 61.9394 2.6572 61.677 2.65814C61.4872 2.65191 61.2987 2.69031 61.1269 2.77015C60.9552 2.84999 60.8052 2.96899 60.6893 3.1173C60.4342 3.45485 60.3039 3.86828 60.32 4.28894C60.3025 4.70977 60.433 5.12363 60.6893 5.46058C60.8069 5.60599 60.9576 5.72195 61.1292 5.799C61.3009 5.87604 61.4886 5.91199 61.677 5.90391H61.6368Z" fill="white"/>
<path d="M65.0414 1.77173C64.9745 1.77117 64.9096 1.74891 64.8567 1.7084C64.826 1.68001 64.8016 1.64565 64.785 1.60751C64.7684 1.56936 64.76 1.52824 64.7604 1.48674C64.7546 1.43999 64.7603 1.39255 64.7771 1.34845C64.7939 1.30435 64.8212 1.26489 64.8567 1.23341C64.9066 1.1848 64.9717 1.15414 65.0414 1.14633C65.0842 1.14437 65.1269 1.15109 65.167 1.16607C65.207 1.18104 65.2436 1.20396 65.2743 1.23341C65.304 1.26089 65.3278 1.29396 65.3444 1.33067C65.3609 1.36738 65.3699 1.40699 65.3706 1.44716C65.3717 1.48904 65.3642 1.5307 65.3484 1.56961C65.3327 1.60852 65.3091 1.64387 65.279 1.67349C65.249 1.70312 65.2131 1.7264 65.1736 1.74193C65.1342 1.75746 65.0919 1.76491 65.0494 1.76382L65.0414 1.77173ZM65.2502 6.19707H64.8326V2.37339H65.2502V6.19707Z" fill="white"/>
<path d="M67.6351 6.29178C67.1265 6.29178 66.8722 6.0147 66.8722 5.46055V2.73726H66.2299V2.37311H66.8722V1.32812H67.2978V2.37311H68.1008V2.73726H67.2978V5.39721C67.2978 5.74554 67.4316 5.9197 67.6993 5.9197C67.7806 5.92211 67.8615 5.90707 67.9364 5.87563C68.0113 5.8442 68.0783 5.79711 68.1329 5.73763L68.2935 6.05429C68.1142 6.21571 67.8777 6.30104 67.6351 6.29178Z" fill="white"/>
<path d="M72.0835 6.19684H71.666V5.7456C71.4998 5.92528 71.2959 6.06719 71.0685 6.16151C70.8411 6.25583 70.5957 6.3003 70.3491 6.29184C70.0005 6.29492 69.663 6.17086 69.4016 5.94351C69.266 5.82855 69.1587 5.68473 69.0878 5.52291C69.0168 5.36108 68.9841 5.18548 68.9921 5.00936C68.9832 4.83504 69.0147 4.66101 69.0843 4.50051C69.1538 4.34001 69.2596 4.19726 69.3936 4.08313C69.6581 3.86278 69.9948 3.74463 70.3411 3.75063C70.5878 3.7411 70.8336 3.78507 71.0611 3.87946C71.2887 3.97385 71.4924 4.11634 71.658 4.29687V3.50522C71.6621 3.38297 71.6374 3.26146 71.5858 3.1502C71.5343 3.03894 71.4573 2.94098 71.3609 2.86398C71.148 2.70082 70.8836 2.61675 70.6141 2.62649C70.381 2.62416 70.1503 2.67345 69.939 2.77073C69.7278 2.86801 69.5414 3.0108 69.3936 3.18856L69.1607 2.90357C69.3505 2.69875 69.5829 2.53682 69.8421 2.42887C70.1013 2.32092 70.3811 2.26951 70.6623 2.27816C71.028 2.26351 71.3877 2.37244 71.6821 2.58691C71.8158 2.69904 71.9211 2.84052 71.9894 2.99999C72.0578 3.15946 72.0872 3.33249 72.0755 3.50522L72.0835 6.19684ZM70.4776 5.96726C70.7012 5.97915 70.9244 5.9379 71.1284 5.84697C71.3324 5.75604 71.5113 5.6181 71.6499 5.44477V4.60562C71.5133 4.43404 71.3371 4.29712 71.136 4.20623C70.9349 4.11535 70.7147 4.07315 70.4937 4.08313C70.3483 4.07248 70.2023 4.09083 70.0644 4.13707C69.9264 4.18332 69.7993 4.25652 69.6907 4.35229C69.5957 4.43864 69.5207 4.54415 69.4709 4.66164C69.421 4.77912 69.3974 4.90582 69.4016 5.03311C69.398 5.15915 69.4219 5.28448 69.4718 5.40059C69.5217 5.5167 69.5963 5.62087 69.6907 5.70601C69.8002 5.8 69.9276 5.87151 70.0655 5.91637C70.2034 5.96122 70.3489 5.97852 70.4937 5.96726H70.4776Z" fill="white"/>
<path d="M74.0026 6.19682H73.5851V0.916504H74.0026V6.19682Z" fill="white"/>
<path d="M80.6674 6.19705H80.2499V5.7458C80.0836 5.92549 79.8797 6.0674 79.6524 6.16172C79.425 6.25604 79.1795 6.3005 78.933 6.29204C78.5845 6.29438 78.2473 6.17042 77.9855 5.94372C77.8499 5.82876 77.7426 5.68494 77.6716 5.52312C77.6007 5.36129 77.568 5.18569 77.5759 5.00957C77.567 4.83525 77.5986 4.66122 77.6681 4.50072C77.7377 4.34022 77.8435 4.19747 77.9774 4.08334C78.242 3.86299 78.5787 3.74484 78.9249 3.75084C79.1716 3.7413 79.4174 3.78528 79.645 3.87967C79.8725 3.97405 80.0763 4.11655 80.2418 4.29708V3.50543C80.2459 3.38318 80.2212 3.26166 80.1697 3.15041C80.1181 3.03915 80.0411 2.94118 79.9447 2.86419C79.7343 2.7022 79.4728 2.61815 79.206 2.6267C78.9729 2.62436 78.7422 2.67366 78.5309 2.77094C78.3197 2.86822 78.1333 3.011 77.9855 3.18877L77.7526 2.90377C77.94 2.69711 78.1705 2.53282 78.4282 2.42214C78.686 2.31147 78.965 2.25702 79.2461 2.26254C79.6118 2.24789 79.9716 2.35681 80.2659 2.57128C80.3997 2.68342 80.505 2.82489 80.5733 2.98436C80.6416 3.14384 80.6711 3.31687 80.6594 3.4896L80.6674 6.19705ZM79.0615 5.96747C79.2851 5.98003 79.5085 5.93907 79.7127 5.84809C79.9168 5.75711 80.0956 5.61881 80.2338 5.44498V4.60583C80.0977 4.43375 79.9215 4.29647 79.7203 4.20554C79.5191 4.11461 79.2986 4.0727 79.0775 4.08334C78.9322 4.07269 78.7862 4.09103 78.6482 4.13728C78.5102 4.18353 78.3832 4.25673 78.2745 4.3525C78.1796 4.43885 78.1046 4.54436 78.0547 4.66184C78.0048 4.77933 77.9812 4.90603 77.9855 5.03332C77.9819 5.15936 78.0058 5.28469 78.0557 5.4008C78.1056 5.51691 78.1802 5.62107 78.2745 5.70622C78.384 5.80021 78.5115 5.87172 78.6493 5.91657C78.7872 5.96143 78.9328 5.97873 79.0775 5.96747H79.0615Z" fill="white"/>
<path d="M83.7107 7.74832C83.4195 7.75719 83.129 7.71703 82.8515 7.62957C82.5942 7.52899 82.3636 7.37197 82.177 7.17042L82.4179 6.83792C82.5635 7.01666 82.7508 7.15792 82.9639 7.24958C83.2021 7.33951 83.4558 7.38254 83.7107 7.37625C84.0501 7.38854 84.3829 7.28197 84.6502 7.07542C84.7799 6.96254 84.8815 6.82166 84.9469 6.66375C85.0124 6.50584 85.04 6.33517 85.0276 6.16502V5.55545C84.8785 5.77141 84.6806 5.95028 84.4494 6.07794C84.2054 6.2156 83.9275 6.28409 83.6465 6.27585C83.4097 6.28148 83.1747 6.23543 82.9581 6.14099C82.7415 6.04656 82.5488 5.90608 82.3938 5.72961C82.0616 5.32002 81.893 4.80465 81.92 4.28089C81.8938 3.75722 82.0623 3.2421 82.3938 2.83217C82.5472 2.6553 82.7383 2.51394 82.9534 2.41816C83.1685 2.32238 83.4024 2.27453 83.6384 2.27801C83.9057 2.27674 84.169 2.34123 84.4045 2.46564C84.6401 2.59006 84.8405 2.77046 84.9874 2.9905V2.37301H85.413V6.16502C85.4324 6.38938 85.3982 6.61509 85.3132 6.82406C85.2281 7.03304 85.0945 7.21944 84.9232 7.36833C84.5732 7.62444 84.1465 7.75816 83.7107 7.74832ZM83.7107 5.90377C83.9731 5.90472 84.2309 5.83638 84.4575 5.70586C84.6739 5.58974 84.8564 5.42072 84.9874 5.21504V3.34674C84.8564 3.14105 84.6739 2.97204 84.4575 2.85592C84.2309 2.7254 83.9731 2.65706 83.7107 2.658C83.5208 2.65113 83.332 2.68923 83.1602 2.76912C82.9884 2.84901 82.8384 2.96836 82.723 3.11716C82.4679 3.45471 82.3376 3.86814 82.3537 4.2888C82.3362 4.70964 82.4667 5.12349 82.723 5.46045C82.8445 5.61154 83.0018 5.73096 83.181 5.80824C83.3601 5.88553 83.5558 5.91833 83.7508 5.90377H83.7107Z" fill="white"/>
<path d="M88.6651 6.29178C88.4051 6.30085 88.1462 6.25544 87.9053 6.15855C87.6645 6.06166 87.4472 5.91549 87.2679 5.7297C87.0848 5.53542 86.9424 5.30748 86.8487 5.0589C86.755 4.81032 86.7119 4.54598 86.7219 4.28098C86.7084 3.75922 86.898 3.25217 87.2518 2.86393C87.4164 2.67539 87.6213 2.5251 87.8517 2.42381C88.0822 2.32253 88.3325 2.27277 88.5848 2.2781C88.8383 2.26656 89.0911 2.31268 89.3236 2.41289C89.5561 2.5131 89.7622 2.66472 89.9257 2.85601C90.2604 3.26512 90.4343 3.77946 90.4156 4.30473V4.41556H87.2036C87.2129 4.81787 87.3698 5.20322 87.6453 5.50013C87.7824 5.64464 87.9495 5.75833 88.1351 5.83346C88.3208 5.9086 88.5207 5.94341 88.7213 5.93553C88.9496 5.9344 89.1751 5.88669 89.3838 5.79541C89.5925 5.70412 89.7797 5.57124 89.9338 5.40513L90.1506 5.67429C89.9594 5.87246 89.7288 6.02959 89.4732 6.13584C89.2176 6.2421 88.9425 6.29518 88.6651 6.29178ZM89.998 4.08307C89.9969 3.71585 89.8663 3.36043 89.6286 3.07767C89.5041 2.92754 89.3454 2.80845 89.1654 2.73006C88.9854 2.65166 88.7893 2.61616 88.5928 2.62643C88.4021 2.61897 88.2123 2.65511 88.0382 2.73202C87.8641 2.80893 87.7104 2.92452 87.5891 3.06976C87.3454 3.35147 87.2041 3.7053 87.1876 4.07515L89.998 4.08307Z" fill="white"/>
<path d="M94.7517 6.19696H94.3341V3.60826C94.3488 3.47452 94.3349 3.33924 94.2934 3.2111C94.2519 3.08295 94.1837 2.96477 94.0932 2.8641C93.8959 2.70876 93.6465 2.63244 93.3947 2.65036C93.144 2.65323 92.8981 2.71859 92.68 2.84035C92.463 2.95118 92.2759 3.11127 92.134 3.30743V6.19696H91.7164V2.37328H92.134V2.95119C92.3085 2.75863 92.5183 2.60018 92.7523 2.48411C92.997 2.34734 93.2739 2.27637 93.5553 2.27828C93.7221 2.26191 93.8906 2.28336 94.0478 2.34102C94.205 2.39867 94.3467 2.49099 94.4621 2.61092C94.5776 2.73084 94.6637 2.87521 94.7139 3.03297C94.7641 3.19074 94.777 3.35773 94.7517 3.52118V6.19696Z" fill="white"/>
<path d="M97.8993 6.29202C97.6439 6.3002 97.3899 6.25264 97.1553 6.15274C96.9207 6.05283 96.7114 5.90306 96.5423 5.71412C96.1904 5.31899 96.0038 4.80682 96.0204 4.28123C96.0022 3.75539 96.189 3.24264 96.5423 2.84834C96.7114 2.6594 96.9207 2.50962 97.1553 2.40972C97.3899 2.30981 97.6439 2.26225 97.8993 2.27043C98.164 2.26359 98.4266 2.31888 98.6653 2.43175C98.904 2.54462 99.1121 2.71183 99.2724 2.91959L98.9834 3.17292C98.8656 3.00437 98.7069 2.86754 98.5218 2.7749C98.3367 2.68226 98.131 2.63675 97.9234 2.64251C97.7217 2.63375 97.5206 2.67056 97.3355 2.75014C97.1504 2.82972 96.9862 2.94996 96.8555 3.10167C96.5808 3.43064 96.4379 3.84749 96.454 4.27331C96.4394 4.69892 96.5821 5.11526 96.8555 5.44496C96.985 5.59857 97.1488 5.72064 97.334 5.80165C97.5193 5.88266 97.721 5.92044 97.9234 5.91203C98.1316 5.9162 98.3375 5.86916 98.5225 5.77517C98.7076 5.68118 98.866 5.5432 98.9834 5.37371L99.2724 5.62704C99.1143 5.83819 98.9071 6.0088 98.6681 6.12453C98.4292 6.24025 98.1655 6.29769 97.8993 6.29202Z" fill="white"/>
<path d="M100.148 7.69295L100.22 7.31295C100.326 7.35779 100.441 7.37939 100.557 7.37629C100.681 7.38091 100.802 7.34469 100.902 7.27337C101.016 7.17494 101.101 7.04957 101.151 6.90921L101.457 6.22839L99.8104 2.37305H100.276L101.689 5.71382L103.087 2.37305H103.584L101.577 7.03588C101.512 7.24333 101.38 7.42456 101.202 7.55284C101.025 7.68113 100.81 7.74967 100.589 7.74836C100.44 7.75262 100.291 7.73392 100.148 7.69295Z" fill="white"/>
</g>
<defs>
<clipPath id="clip0_624_431">
<rect width="104.395" height="22" fill="white" transform="translate(0 0.916504)"/>
</clipPath>
</defs>
</svg>
