<svg id="Слой_1" data-name="Слой 1" xmlns="http://www.w3.org/2000/svg" viewBox="0 0 36.5 36.31"><defs><style>.cls-1,.cls-2,.cls-3{fill:none;stroke:#4a208c;stroke-miterlimit:10;}.cls-1,.cls-3{stroke-width:3.18px;}.cls-2{stroke-width:3.15px;}.cls-3{stroke-linecap:round;}</style></defs><title>shoppingbasket2</title><path class="cls-1" d="M31.52,6.54H5.33a3.56,3.56,0,0,0,0,7.12H31.52a3.56,3.56,0,0,0,0-7.12Z" transform="translate(-0.18 -0.41)"/><path class="cls-2" d="M26.8,35.15H9.34a3,3,0,0,1-1.94-.72,3,3,0,0,1-1-1.83l-1.1-19H31.52l-1.81,19a2.95,2.95,0,0,1-2.91,2.55Z" transform="translate(-0.18 -0.41)"/><path class="cls-2" d="M13.15,5.85A3.88,3.88,0,0,1,17,2h2.81A3.88,3.88,0,0,1,23.7,5.85V6.2" transform="translate(-0.18 -0.41)"/><path class="cls-3" d="M18.37,18.17V29.92" transform="translate(-0.18 -0.41)"/><path class="cls-3" d="M12.63,18.17V29.92" transform="translate(-0.18 -0.41)"/><path class="cls-3" d="M24.1,18.17V29.92" transform="translate(-0.18 -0.41)"/></svg>