<svg id="Слой_2" data-name="Слой 2" xmlns="http://www.w3.org/2000/svg" viewBox="0 0 461.31 507.58"><defs><style>.cls-1{fill:none;stroke:#fff;stroke-linecap:round;stroke-linejoin:round;stroke-width:44px;}</style></defs><title>tobacco</title><path class="cls-1" d="M177.06,373C89.42,336.84-39.22,243.83,55,22c0,0,168.42,26,216.17,153.29" transform="translate(0 0)"/><polyline class="cls-1" points="113.16 134.17 145.74 198.41 161.22 228.92 188.2 282.1"/><line class="cls-1" x1="145.75" y1="198.41" x2="91.08" y2="193.62"/><line class="cls-1" x1="161.18" y1="229.01" x2="188.63" y2="181.49"/><line class="cls-1" x1="183.88" y1="297.11" x2="141.03" y2="293.36"/><path class="cls-1" d="M188.5,451.57C166.29,367,147.06,174.77,412.37,130.38c0,0,126.77,288.45-169.68,354.09A45.73,45.73,0,0,1,188.5,451.57Z" transform="translate(0 0)"/><line class="cls-1" x1="207.99" y1="478.31" x2="349.04" y2="239.71"/><line class="cls-1" x1="312.38" y1="301.72" x2="287.04" y2="253.05"/><line class="cls-1" x1="287.04" y1="344.85" x2="341.86" y2="342.47"/><line class="cls-1" x1="255.12" y1="397.45" x2="229.77" y2="348.78"/></svg>