<svg id="Capa_1" data-name="Capa 1" xmlns="http://www.w3.org/2000/svg" viewBox="0 0 510 431.33"><defs><style>.cls-1,.cls-2,.cls-3{fill:none;stroke:#fff;stroke-width:40px;}.cls-1,.cls-3{stroke-linecap:round;}.cls-1,.cls-2{stroke-miterlimit:10;}.cls-3{stroke-linejoin:round;}</style></defs><title>video</title><rect class="cls-1" x="20" y="20" width="470" height="391.33" rx="20.67" ry="20.67"/><line class="cls-2" x1="20" y1="89.67" x2="490" y2="89.67"/><line class="cls-2" x1="20" y1="340.67" x2="490" y2="340.67"/><polygon class="cls-3" points="317.05 216.67 209.33 154.48 209.33 278.86 317.05 216.67"/><line class="cls-3" x1="101.33" y1="20" x2="101.33" y2="89.67"/><line class="cls-3" x1="416" y1="20" x2="416" y2="89.67"/><line class="cls-3" x1="337.33" y1="20" x2="337.33" y2="89.67"/><line class="cls-3" x1="180" y1="20" x2="180" y2="89.67"/><line class="cls-3" x1="258.67" y1="20" x2="258.67" y2="89.67"/><line class="cls-3" x1="101.33" y1="340.67" x2="101.33" y2="410.33"/><line class="cls-3" x1="416" y1="340.67" x2="416" y2="410.33"/><line class="cls-3" x1="337.33" y1="340.67" x2="337.33" y2="410.33"/><line class="cls-3" x1="180" y1="340.67" x2="180" y2="410.33"/><line class="cls-3" x1="258.67" y1="340.67" x2="258.67" y2="410.33"/></svg>