<?xml version="1.0" encoding="utf-8"?>
<!-- Generator: Adobe Illustrator 22.1.0, SVG Export Plug-In . SVG Version: 6.00 Build 0)  -->
<svg version="1.1" id="Слой_1" xmlns="http://www.w3.org/2000/svg" xmlns:xlink="http://www.w3.org/1999/xlink" x="0px" y="0px"
	 viewBox="0 0 86 87" style="enable-background:new 0 0 86 87;" xml:space="preserve">
<style type="text/css">
	.st0{fill:#4A208C;}
	.st1{fill:none;stroke:#FFFEFE;stroke-width:3.11;stroke-miterlimit:10;}
	.st2{fill:#4A208C;stroke:#FFFEFE;stroke-width:3.11;stroke-miterlimit:10;}
</style>
<circle class="st0" cx="43" cy="43.6" r="43"/>
<g>
	<path class="st1" d="M62.3,47.3v6.6c0,0.8,0.2,1.4-0.6,1.4h-2.2l-0.8,0l-4.1-0.4l-2.5,0h-0.3h-4.3V44.6h11.5l2.3,1.3
		c0.3,0.1,0.5,0.3,0.6,0.5C62.3,46.7,62.3,47,62.3,47.3L62.3,47.3z"/>
	<path class="st2" d="M58.6,55.3c0.2,0.8,0.2,1.6-0.1,2.4s-0.8,1.4-1.4,1.9c-0.7,0.5-1.5,0.7-2.3,0.7c-0.8,0-1.6-0.3-2.2-0.8
		c-0.6-0.5-1.1-1.2-1.4-1.9c-0.2-0.8-0.2-1.6,0-2.4c0.3-0.8,0.7-1.4,1.4-1.9c0.7-0.5,1.4-0.7,2.3-0.7c0.8,0,1.6,0.3,2.3,0.8
		C57.9,53.8,58.4,54.5,58.6,55.3L58.6,55.3z"/>
	<path class="st1" d="M56.6,35.9l2.6,8.6H47.6V34.4H54c0.5,0,1.1,0.1,1.5,0.4C56,35.1,56.4,35.5,56.6,35.9z"/>
	<path class="st1" d="M47.6,44.6v10.3l-11.9,0l-0.1,0h-5l-3.7,0l-1.9,0c-0.2,0-0.3,0-0.5-0.1c-0.2-0.1-0.3-0.2-0.4-0.3
		c-0.1-0.1-0.2-0.3-0.3-0.4c-0.1-0.2-0.1-0.3-0.1-0.5l0,0v-9L47.6,44.6z"/>
	<path class="st1" d="M47.6,43.3v1.3h-24v-14c0-0.4,0.1-0.8,0.2-1.1c0.1-0.4,0.4-0.7,0.6-0.9c0.3-0.3,0.6-0.5,0.9-0.6
		c0.4-0.1,0.7-0.2,1.1-0.2h18.2c0.8,0,1.5,0.3,2,0.8c0.5,0.5,0.8,1.3,0.8,2V43.3z"/>
	<path class="st2" d="M34,55.3c0.2,0.8,0.2,1.6-0.1,2.4c-0.3,0.8-0.8,1.4-1.4,1.9c-0.7,0.5-1.5,0.7-2.3,0.7c-0.8,0-1.6-0.3-2.2-0.8
		c-0.6-0.5-1.1-1.2-1.4-1.9c-0.2-0.8-0.2-1.6,0-2.4c0.3-0.8,0.7-1.4,1.4-1.9c0.7-0.5,1.4-0.7,2.3-0.7c0.8,0,1.6,0.3,2.3,0.8
		C33.3,53.8,33.7,54.5,34,55.3L34,55.3z"/>
</g>
</svg>
