<?xml version="1.0" encoding="utf-8"?>
<!-- Generator: Adobe Illustrator 22.1.0, SVG Export Plug-In . SVG Version: 6.00 Build 0)  -->
<svg version="1.1" id="Слой_1" xmlns="http://www.w3.org/2000/svg" xmlns:xlink="http://www.w3.org/1999/xlink" x="0px" y="0px"
	 viewBox="0 0 86 87" style="enable-background:new 0 0 86 87;" xml:space="preserve">
<style type="text/css">
	.st0{fill:#4A208C;}
	.st1{fill:none;stroke:#FFFFFF;stroke-width:3.1082;stroke-miterlimit:10;}
	.st2{fill:none;stroke:#FFFFFF;stroke-width:3.1082;stroke-linecap:round;stroke-miterlimit:10;}
</style>
<circle class="st0" cx="43" cy="43.6" r="43"/>
<g>
	<path class="st1" d="M28.9,53.6c2.3,0,4.1,1.9,4.1,4.1c0,2.3-1.9,4.1-4.1,4.1s-4.1-1.9-4.1-4.1C24.8,55.4,26.7,53.6,28.9,53.6z"/>
	<path class="st2" d="M61.2,57.7H38"/>
	<path class="st1" d="M28.9,39.5c2.3,0,4.1,1.9,4.1,4.1c0,2.3-1.9,4.1-4.1,4.1s-4.1-1.9-4.1-4.1C24.8,41.3,26.7,39.5,28.9,39.5z"/>
	<path class="st2" d="M61.2,43.6H38"/>
	<path class="st1" d="M28.9,25.4c2.3,0,4.1,1.9,4.1,4.1s-1.9,4.1-4.1,4.1s-4.1-1.9-4.1-4.1S26.7,25.4,28.9,25.4z"/>
	<path class="st2" d="M61.2,29.5H38"/>
</g>
</svg>
