<?xml version="1.0" encoding="utf-8"?>
<!-- Generator: Adobe Illustrator 22.1.0, SVG Export Plug-In . SVG Version: 6.00 Build 0)  -->
<svg version="1.1" id="Слой_1" xmlns="http://www.w3.org/2000/svg" xmlns:xlink="http://www.w3.org/1999/xlink" x="0px" y="0px"
	 viewBox="0 0 86 87" style="enable-background:new 0 0 86 87;" xml:space="preserve">
<style type="text/css">
	.st0{fill:#4A208C;}
	.st1{fill:none;stroke:#FFFFFF;stroke-width:3.11;stroke-miterlimit:10;}
	.st2{fill:none;stroke:#FFFFFF;stroke-width:1.5187;stroke-miterlimit:10;}
</style>
<circle class="st0" cx="43" cy="43.6" r="43"/>
<g>
	<path class="st1" d="M54.9,37.1H25.2c-1.2,0-2.2,1-2.2,2.2V56c0,1.2,1,2.2,2.2,2.2h29.7c1.2,0,2.2-1,2.2-2.2V39.3
		C57.1,38.1,56.1,37.1,54.9,37.1z"/>
	<path class="st1" d="M56.8,51.2l4.6-1.2c0.4-0.1,0.7-0.3,1-0.5c0.3-0.2,0.5-0.5,0.7-0.8c0.2-0.3,0.3-0.7,0.4-1c0-0.4,0-0.7-0.1-1.1
		l-4-14.9c-0.2-0.7-0.7-1.3-1.3-1.7s-1.4-0.5-2.1-0.3l-26.4,7.5"/>
	<path class="st1" d="M40,52c2.4,0,4.3-1.9,4.3-4.3c0-2.4-1.9-4.3-4.3-4.3s-4.3,1.9-4.3,4.3C35.7,50,37.6,52,40,52z"/>
	<path class="st2" d="M50.9,49c0.8,0,1.4-0.6,1.4-1.4c0-0.8-0.6-1.4-1.4-1.4c-0.8,0-1.4,0.6-1.4,1.4C49.5,48.4,50.1,49,50.9,49z"/>
	<path class="st2" d="M29.2,49c0.8,0,1.4-0.6,1.4-1.4c0-0.8-0.6-1.4-1.4-1.4c-0.8,0-1.4,0.6-1.4,1.4C27.8,48.4,28.5,49,29.2,49z"/>
</g>
</svg>
