<?xml version="1.0" encoding="utf-8"?>
<!-- Generator: Adobe Illustrator 22.1.0, SVG Export Plug-In . SVG Version: 6.00 Build 0)  -->
<svg version="1.1" id="Слой_1" xmlns="http://www.w3.org/2000/svg" xmlns:xlink="http://www.w3.org/1999/xlink" x="0px" y="0px"
	 viewBox="0 0 45 45" style="enable-background:new 0 0 45 45;" xml:space="preserve">
<style type="text/css">
	.st0{fill:#4A208C;}
	.st1{fill:none;stroke:#FFFFFF;stroke-width:1.7559;stroke-miterlimit:10;}
</style>
<circle class="st0" cx="22.5" cy="22.6" r="22"/>
<g>
	<g>
		<path class="st1" d="M15,16h15.1c0.2,0,0.5,0,0.7,0.1c0.2,0.1,0.4,0.2,0.6,0.4c0.2,0.2,0.3,0.4,0.4,0.6c0.1,0.2,0.1,0.5,0.1,0.7
			v9.5c0,0.5-0.2,1-0.5,1.3c-0.3,0.3-0.8,0.5-1.3,0.5H15c-0.5,0-1-0.2-1.3-0.5c-0.3-0.3-0.5-0.8-0.5-1.3v-9.5c0-0.5,0.2-1,0.5-1.3
			C14,16.2,14.5,16,15,16L15,16z"/>
		<path class="st1" d="M13.5,16.4l6.1,5.7c0.7,0.7,1.7,1.1,2.6,1.1c1,0,1.9-0.3,2.7-1l6.6-5.9"/>
		<path class="st1" d="M31.9,29L25,22.2"/>
		<path class="st1" d="M13,29.2l6.8-6.9"/>
	</g>
</g>
</svg>
