<?xml version="1.0" encoding="utf-8"?>
<!-- Generator: Adobe Illustrator 22.1.0, SVG Export Plug-In . SVG Version: 6.00 Build 0)  -->
<svg version="1.1" id="Слой_1" xmlns="http://www.w3.org/2000/svg" xmlns:xlink="http://www.w3.org/1999/xlink" x="0px" y="0px"
	 viewBox="0 0 45 45" style="enable-background:new 0 0 45 45;" xml:space="preserve">
<style type="text/css">
	.st0{fill:#4A208C;}
	.st1{fill:#FFFFFF;}
</style>
<circle class="st0" cx="22.5" cy="22.6" r="22"/>
<g>
	<g>
		<path class="st1" d="M22.5,13.8c3.7,0,6.8,3,6.8,6.8c0,0.4,0,0.9-0.1,1.3l0,0l0,0c0,0,0,0.1,0,0.1l0,0l0,0
			c-0.1,0.5-0.3,0.9-0.5,1.3l0,0l0,0c-0.8,1.8-2.5,4.6-6.1,7.8c-3.7-3.1-5.4-5.9-6.2-7.8l0,0l0,0c-0.2-0.4-0.3-0.9-0.5-1.3l0,0l0,0
			c0,0,0-0.1,0-0.1v0l0-0.1c-0.1-0.6-0.2-1.3-0.1-1.9c0.2-1.6,0.9-3.1,2.1-4.3c1.2-1.1,2.8-1.8,4.4-1.8h0
			C22.4,13.8,22.5,13.8,22.5,13.8L22.5,13.8z M22.5,12.1c-0.1,0-0.2,0-0.3,0c-4.3,0.1-7.8,3.4-8.2,7.7c-0.1,0.8,0,1.6,0.1,2.4
			c0,0.1,0,0.2,0.1,0.3c0.1,0.6,0.3,1.1,0.6,1.7c0.9,2.1,2.8,5.3,7,8.7c0.2,0.2,0.5,0.3,0.8,0.3c0.3,0,0.6-0.1,0.8-0.3
			c4.2-3.4,6.1-6.6,7-8.7c0.3-0.5,0.4-1.1,0.6-1.7c0-0.1,0-0.2,0.1-0.3c0.1-0.5,0.2-1.1,0.2-1.6C31.1,15.9,27.2,12.1,22.5,12.1
			L22.5,12.1z"/>
		<path class="st1" d="M22.5,18c0.5,0,1.1,0.2,1.5,0.4c0.4,0.3,0.8,0.7,1,1.2c0.2,0.5,0.3,1,0.2,1.5c-0.1,0.5-0.4,1-0.7,1.4
			c-0.4,0.4-0.9,0.6-1.4,0.7s-1.1,0-1.6-0.2c-0.5-0.2-0.9-0.5-1.2-1c-0.3-0.4-0.5-1-0.5-1.5c0-0.7,0.3-1.4,0.8-1.9
			C21.1,18.3,21.8,18,22.5,18z M22.5,16.3c-1.2,0-2.3,0.5-3.1,1.3c-0.8,0.8-1.3,1.9-1.3,3.1c0,2.4,2,4.4,4.4,4.4
			c1.2,0,2.3-0.5,3.1-1.3c0.8-0.8,1.3-1.9,1.3-3.1C27,18.2,25,16.3,22.5,16.3z"/>
	</g>
</g>
</svg>
