<?xml version="1.0" encoding="utf-8"?>
<!-- Generator: Adobe Illustrator 22.1.0, SVG Export Plug-In . SVG Version: 6.00 Build 0)  -->
<svg version="1.1" id="Слой_1" xmlns="http://www.w3.org/2000/svg" xmlns:xlink="http://www.w3.org/1999/xlink" x="0px" y="0px"
	 viewBox="0 0 45 45" style="enable-background:new 0 0 45 45;" xml:space="preserve">
<style type="text/css">
	.st0{fill:#4A208C;}
	.st1{fill:#FFFFFF;}
	.st2{fill:none;stroke:#FFFFFF;stroke-width:1.8194;stroke-linecap:round;stroke-miterlimit:10;}
</style>
<circle class="st0" cx="22.5" cy="22.6" r="22"/>
<g>
	<g>
		<path class="st1" d="M17.1,13.9l0.7,3.3l-1.4,1.4c-0.3,0.3-0.4,0.6-0.5,0.9c-0.1,0.4,0,0.7,0.2,1c1.8,3.6,4.8,6.6,8.4,8.4
			c0.3,0.2,0.7,0.2,1,0.2s0.7-0.2,0.9-0.5l1.4-1.4l3.3,0.7c-0.1,0.4-0.2,0.8-0.4,1.2c-0.3,0.6-0.8,1.1-1.3,1.5
			c-0.5,0.4-1.2,0.6-1.8,0.7c-0.2,0-0.4,0-0.6,0c-0.5,0-1-0.1-1.4-0.3c-2.7-1-5.1-2.5-7.1-4.6c-2-2-3.6-4.5-4.6-7.1
			c-0.2-0.6-0.3-1.3-0.2-2c0.1-0.7,0.3-1.3,0.7-1.8c0.4-0.5,0.9-1,1.5-1.3C16.3,14.1,16.7,14,17.1,13.9z M18,12.1
			c-1,0-1.9,0.2-2.8,0.7c-0.8,0.4-1.5,1.1-2,1.8c-0.5,0.8-0.9,1.6-1,2.5c-0.1,1,0,1.9,0.3,2.9c1.1,2.9,2.8,5.6,5,7.8
			c2.2,2.2,4.9,3.9,7.8,5c0.9,0.3,1.9,0.4,2.9,0.3c0.9-0.1,1.8-0.5,2.5-1c0.8-0.5,1.4-1.2,1.8-2c0.5-0.9,0.7-1.8,0.7-2.8
			c0-0.1-0.1-0.3-0.1-0.4c-0.1-0.1-0.2-0.2-0.4-0.2l-4.8-1c0,0-0.1,0-0.1,0c-0.2,0-0.3,0.1-0.5,0.2l-1.8,1.8c-3.3-1.7-6-4.3-7.7-7.7
			l1.8-1.8c0.1-0.1,0.1-0.2,0.2-0.3c0-0.1,0-0.2,0-0.3l-1-4.8c0-0.1-0.1-0.3-0.2-0.4C18.3,12.2,18.1,12.1,18,12.1L18,12.1z"/>
		<path class="st2" d="M22.4,13c0,0,9.6-0.5,9.7,10.2"/>
		<path class="st2" d="M22.4,16.4c0,0,5.9,0,5.9,6.3"/>
	</g>
</g>
</svg>
