<?xml version="1.0" encoding="utf-8"?>
<!-- Generator: Adobe Illustrator 22.1.0, SVG Export Plug-In . SVG Version: 6.00 Build 0)  -->
<svg version="1.1" id="Слой_1" xmlns="http://www.w3.org/2000/svg" xmlns:xlink="http://www.w3.org/1999/xlink" x="0px" y="0px"
	 viewBox="0 0 41 41" style="enable-background:new 0 0 41 41;" xml:space="preserve">
<style type="text/css">
	.st0{fill:#FFFFFF;}
	.st1{fill:#4A208C;}
</style>
<g>
	<g>
		<path class="st0" d="M40.9,20.6c0-11.2-9.1-20.3-20.3-20.3c-5.1,0-9.9,1.9-13.7,5.3c-4.1,3.7-6.1,9-6.1,15c0,11.2,8.6,20,19.8,20
			c5.9,0,11.3-2.2,15-6.3C39.1,30.6,41,25.7,40.9,20.6z"/>
		<path class="st1" d="M24.4,11h2.2c0.1,0,0.3-0.1,0.4-0.2c0.1-0.1,0.2-0.2,0.2-0.4V7c0-0.1,0-0.1,0-0.2c0-0.1-0.1-0.1-0.1-0.2
			C27,6.6,27,6.5,26.9,6.5c-0.1,0-0.1,0-0.2,0h-3.4c-1.6,0-3.2,0.6-4.4,1.8s-1.8,2.7-1.8,4.4v4.5h-3.4l-0.9,3.4l4.6,0.6l0.1,12.4
			l4.4,0.4l0.7-0.6V21.6h2.9c0.1,0,0.2,0,0.3-0.1c0.1-0.1,0.2-0.2,0.2-0.3l0.8-3.4c0-0.1,0-0.2,0-0.3c0-0.1-0.1-0.2-0.1-0.2
			c-0.1-0.1-0.1-0.1-0.2-0.2c-0.1,0-0.2-0.1-0.2-0.1h-3.8v-4.5c0-0.2,0-0.4,0.1-0.6s0.2-0.4,0.4-0.5c0.2-0.2,0.3-0.3,0.5-0.4
			S24.2,11,24.4,11z"/>
		<path class="st1" d="M21,33.4c-0.6,0-1.2,0-1.8-0.1c-0.3,0-0.5-0.2-0.7-0.4c-0.2-0.2-0.3-0.5-0.3-0.8V21.6c0-0.3-0.1-0.6-0.3-0.8
			c-0.2-0.2-0.5-0.3-0.8-0.3h-2.8c-0.1,0-0.3-0.1-0.4-0.2c-0.1-0.1-0.2-0.2-0.2-0.4v-2.8h-0.6c-0.1,0-0.1,0-0.2,0
			c-0.1,0-0.1,0.1-0.2,0.1c-0.1,0.1-0.1,0.1-0.1,0.2c0,0.1,0,0.1,0,0.2V21c0,0.1,0.1,0.3,0.2,0.4c0.1,0.1,0.2,0.2,0.4,0.2h3.9v12.7
			c1.9,0.3,3.7,0.3,5.6,0v-1C22.1,33.3,21.6,33.4,21,33.4z"/>
	</g>
</g>
</svg>
