<?xml version="1.0" encoding="utf-8"?>
<!-- Generator: Adobe Illustrator 22.1.0, SVG Export Plug-In . SVG Version: 6.00 Build 0)  -->
<svg version="1.1" id="Слой_1" xmlns="http://www.w3.org/2000/svg" xmlns:xlink="http://www.w3.org/1999/xlink" x="0px" y="0px"
	 viewBox="0 0 41 41" style="enable-background:new 0 0 41 41;" xml:space="preserve">
<style type="text/css">
	.st0{fill:#FFFFFF;}
	.st1{fill:#4A208C;}
</style>
<g>
	<circle class="st0" cx="20.5" cy="20.5" r="20"/>
	<g>
		<path class="st1" d="M7.9,15.6C8,15,8,14.5,8.1,13.9c0.6-3.3,2.9-5.6,6.3-5.7c4-0.1,8.1-0.1,12.1,0c3.6,0.1,6.3,2.8,6.4,6.5
			c0.1,3.9,0.1,7.7,0,11.6c-0.1,3.6-2.8,6.3-6.4,6.5c-4,0.1-8.1,0.1-12.1,0c-3.6-0.1-6.2-2.8-6.4-6.5c0-0.3-0.1-0.6-0.1-0.9
			L7.9,15.6z M20.5,30.6c1.8,0,3.7,0.1,5.5,0c2.9-0.1,4.7-1.8,4.7-4.7c0.1-3.6,0.1-7.2,0-10.8c-0.1-2.9-1.8-4.7-4.7-4.7
			c-3.7-0.1-7.3-0.1-11,0c-2.9,0.1-4.6,1.8-4.7,4.6c-0.1,3.6-0.1,7.3,0,10.9c0.1,2.9,1.9,4.5,4.7,4.6C16.8,30.7,18.6,30.6,20.5,30.6
			z"/>
		<path class="st1" d="M20.5,14.1c-1.3,0-2.5,0.4-3.6,1.1c-1.1,0.7-1.9,1.7-2.4,2.9c-0.5,1.2-0.6,2.5-0.4,3.7s0.9,2.4,1.8,3.3
			c0.9,0.9,2,1.5,3.3,1.8c1.2,0.2,2.5,0.1,3.7-0.4c1.2-0.5,2.2-1.3,2.9-2.4c0.7-1.1,1.1-2.3,1.1-3.6c0-1.7-0.7-3.3-1.9-4.5
			C23.8,14.8,22.2,14.1,20.5,14.1z M20.5,24.7c-0.8,0-1.6-0.2-2.3-0.7c-0.7-0.5-1.2-1.1-1.5-1.9c-0.3-0.8-0.4-1.6-0.2-2.4
			c0.2-0.8,0.6-1.6,1.1-2.2c0.6-0.6,1.3-1,2.2-1.1c0.8-0.2,1.7-0.1,2.4,0.2c0.8,0.3,1.4,0.9,1.9,1.5c0.5,0.7,0.7,1.5,0.7,2.3
			c0,1.1-0.4,2.2-1.2,3S21.6,24.7,20.5,24.7z"/>
		<path class="st1" d="M28.8,13.8c0,0.3-0.1,0.6-0.3,0.8c-0.2,0.3-0.4,0.4-0.7,0.6c-0.3,0.1-0.6,0.1-0.9,0.1
			c-0.3-0.1-0.6-0.2-0.8-0.4c-0.2-0.2-0.4-0.5-0.4-0.8c-0.1-0.3,0-0.6,0.1-0.9c0.1-0.3,0.3-0.5,0.6-0.7c0.3-0.2,0.5-0.3,0.8-0.3
			c0.2,0,0.4,0,0.6,0.1c0.2,0.1,0.4,0.2,0.5,0.3c0.1,0.1,0.3,0.3,0.3,0.5C28.7,13.4,28.8,13.6,28.8,13.8z"/>
	</g>
</g>
</svg>
