<?xml version="1.0" encoding="utf-8"?>
<!-- Generator: Adobe Illustrator 22.1.0, SVG Export Plug-In . SVG Version: 6.00 Build 0)  -->
<svg version="1.1" id="Слой_1" xmlns="http://www.w3.org/2000/svg" xmlns:xlink="http://www.w3.org/1999/xlink" x="0px" y="0px"
	 viewBox="0 0 41 41" style="enable-background:new 0 0 41 41;" xml:space="preserve">
<style type="text/css">
	.st0{fill:#FFFFFF;}
	.st1{fill:#4A208C;}
</style>
<g>
	<g>
		<path class="st0" d="M20.9,40.6c11,0,20-9,20-20c0-11-9-20-20-20c-11,0-20,9-20,20C0.9,31.7,9.8,40.6,20.9,40.6z"/>
		<path class="st1" d="M10,20.2l19.3-7.4c0.9-0.3,1.7,0.2,1.4,1.6l0,0l-3.3,15.5c-0.2,1.1-0.9,1.4-1.8,0.8l-5-3.7l-2.4,2.3
			c-0.3,0.3-0.5,0.5-1,0.5l0.4-5.1l9.3-8.4c0.4-0.4-0.1-0.6-0.6-0.2l-11.5,7.2l-4.9-1.5C8.7,21.5,8.7,20.7,10,20.2z"/>
	</g>
</g>
</svg>
