<?xml version="1.0" encoding="utf-8"?>
<!-- Generator: Adobe Illustrator 22.1.0, SVG Export Plug-In . SVG Version: 6.00 Build 0)  -->
<svg version="1.1" id="Слой_1" xmlns="http://www.w3.org/2000/svg" xmlns:xlink="http://www.w3.org/1999/xlink" x="0px" y="0px"
	 viewBox="0 0 41 41" style="enable-background:new 0 0 41 41;" xml:space="preserve">
<style type="text/css">
	.st0{fill:#FFFFFF;}
	.st1{fill:#4A208C;}
</style>
<g>
	<g>
		<path class="st0" d="M20.9,40.6c11,0,20-9,20-20c0-11-9-20-20-20c-11,0-20,9-20,20C0.9,31.7,9.8,40.6,20.9,40.6z"/>
		<path class="st1" d="M31.5,14.7L31.5,14.7c-0.5-2.2-2.9-4.5-5.2-5h0C22.7,9,19.1,9,15.5,9.7h0c-2.2,0.5-4.6,2.8-5.1,5l0,0
			c-0.7,3-0.7,6.1,0,9.1l0,0c0.5,2.1,2.7,4.3,4.9,4.9v2.4c0,0.2,0.1,0.4,0.2,0.5c0.1,0.2,0.3,0.3,0.4,0.4s0.4,0.1,0.6,0
			s0.4-0.1,0.5-0.3l2.4-2.5c0.5,0,1.1,0,1.6,0c1.8,0,3.6-0.2,5.4-0.5l0,0c2.2-0.5,4.6-2.8,5.2-5l0,0C32.1,20.8,32.1,17.7,31.5,14.7z
			 M29.5,23.4c-0.4,1.4-2.2,3.2-3.6,3.5c-1.9,0.4-3.8,0.5-5.7,0.5c0,0,0,0,0,0c0,0,0,0,0,0l-1.8,1.8l-1.9,2c0,0-0.1,0-0.1,0.1
			c0,0-0.1,0-0.1,0c0,0-0.1,0-0.1-0.1c0,0,0-0.1,0-0.1v-3.9c-1.4-0.4-3.4-2.4-3.8-3.7c-0.6-2.7-0.6-5.5,0-8.2
			c0.4-1.4,2.2-3.2,3.6-3.5c3.3-0.6,6.7-0.6,10,0c1.4,0.3,3.3,2.1,3.6,3.5C30.1,17.8,30.1,20.7,29.5,23.4z"/>
		<path class="st1" d="M24.1,25.2c-0.2-0.1-0.4-0.1-0.6-0.2c-2-0.9-3.9-1.9-5.4-3.6c-0.8-1-1.5-2-2.1-3.2c-0.3-0.5-0.5-1.1-0.7-1.7
			c-0.2-0.5,0.1-1,0.4-1.4c0.3-0.4,0.7-0.6,1.1-0.8c0.3-0.2,0.7-0.1,0.9,0.2c0.5,0.6,1,1.3,1.4,1.9c0.2,0.4,0.2,1-0.3,1.3
			c-0.1,0.1-0.2,0.2-0.3,0.2c-0.1,0.1-0.2,0.1-0.2,0.2c-0.1,0.1-0.1,0.2-0.1,0.3c0,0.1,0,0.2,0,0.3c0.5,1.5,1.4,2.6,2.9,3.2
			c0.2,0.1,0.5,0.2,0.7,0.2c0.5-0.1,0.6-0.6,0.9-0.8c0.1-0.1,0.3-0.2,0.5-0.2c0.2,0,0.4,0,0.5,0.2c0.3,0.2,0.7,0.4,1,0.7
			c0.3,0.2,0.6,0.5,0.9,0.7c0.3,0.2,0.4,0.6,0.2,0.9c-0.3,0.6-0.7,1.1-1.3,1.5C24.5,25.1,24.2,25.1,24.1,25.2
			C23.8,25.1,24.3,25.1,24.1,25.2z"/>
		<path class="st1" d="M20.9,13.6c2.7,0.1,4.9,1.9,5.4,4.5c0.1,0.5,0.1,0.9,0.1,1.4c0,0.2-0.1,0.4-0.3,0.4c-0.2,0-0.3-0.2-0.3-0.4
			c0-0.4,0-0.8-0.1-1.1c-0.3-2-1.9-3.6-3.9-4c-0.3-0.1-0.6-0.1-0.9-0.1c-0.2,0-0.4,0-0.5-0.3c0,0,0-0.1,0-0.1s0-0.1,0.1-0.1
			c0,0,0.1-0.1,0.1-0.1c0,0,0.1,0,0.1,0C20.8,13.6,20.8,13.6,20.9,13.6C23.6,13.6,20.8,13.6,20.9,13.6z"/>
		<path class="st1" d="M25,18.8c0,0.1,0,0.1,0,0.2c-0.1,0.3-0.5,0.3-0.6,0c0-0.1,0-0.2,0-0.3c0-0.6-0.1-1.1-0.4-1.6
			c-0.3-0.5-0.7-0.9-1.3-1.2c-0.3-0.2-0.7-0.3-1-0.3c-0.2,0-0.3,0-0.5-0.1c0,0-0.1,0-0.1,0c0,0-0.1,0-0.1-0.1c0,0,0-0.1-0.1-0.1
			c0,0,0-0.1,0-0.1c0,0,0-0.1,0-0.1c0,0,0-0.1,0.1-0.1c0,0,0.1,0,0.1-0.1c0,0,0.1,0,0.1,0c0.6,0,1.2,0.2,1.8,0.5
			c1.1,0.6,1.7,1.5,1.9,2.8c0,0.1,0,0.1,0,0.2C25,18.5,25,18.7,25,18.8C25,18.9,25,18.7,25,18.8z"/>
		<path class="st1" d="M23.3,18.8c-0.2,0-0.3-0.1-0.4-0.3c0-0.1,0-0.3-0.1-0.4c-0.1-0.3-0.2-0.5-0.4-0.7c-0.1-0.1-0.2-0.1-0.4-0.2
			c-0.2,0-0.3,0-0.5-0.1c0,0-0.1,0-0.1,0c0,0-0.1,0-0.1-0.1c0,0,0-0.1,0-0.1s0-0.1,0-0.1c0-0.1,0.1-0.1,0.1-0.2
			c0.1,0,0.1-0.1,0.2-0.1c1,0.1,1.8,0.6,1.9,1.8c0,0.1,0,0.2,0,0.3c0,0.1,0,0.1-0.1,0.1C23.4,18.8,23.4,18.8,23.3,18.8
			C23.1,18.8,23.4,18.8,23.3,18.8z"/>
	</g>
</g>
</svg>
