<svg version="1.1" id="Слой_1" xmlns="http://www.w3.org/2000/svg" x="0" y="0" viewBox="0 0 86 87" xml:space="preserve"><style>.st1,.st2{fill:none;stroke:#fffefe;stroke-width:3.11;stroke-miterlimit:10}.st2{fill:#4a208c}</style><circle cx="43" cy="43.6" r="43" fill="#4a208c"/><path class="st1" d="M62.3 47.3v6.6c0 .8.2 1.4-.6 1.4h-3l-4.1-.4h-7.1V44.6H59l2.3 1.3c.3.1.5.3.6.5.4.3.4.6.4.9z"/><path class="st2" d="M58.6 55.3c.2.8.2 1.6-.1 2.4s-.8 1.4-1.4 1.9c-.7.5-1.5.7-2.3.7-.8 0-1.6-.3-2.2-.8-.6-.5-1.1-1.2-1.4-1.9-.2-.8-.2-1.6 0-2.4.3-.8.7-1.4 1.4-1.9s1.4-.7 2.3-.7c.8 0 1.6.3 2.3.8.7.4 1.2 1.1 1.4 1.9z"/><path class="st1" d="M56.6 35.9l2.6 8.6H47.6V34.4H54c.5 0 1.1.1 1.5.4.5.3.9.7 1.1 1.1zm-9 8.7v10.3H25c-.2 0-.3 0-.5-.1s-.3-.2-.4-.3c-.1-.1-.2-.3-.3-.4-.1-.2-.1-.3-.1-.5v-9h23.9zm0-1.3v1.3h-24v-14c0-.4.1-.8.2-1.1.1-.4.4-.7.6-.9.3-.3.6-.5.9-.6.4-.1.7-.2 1.1-.2h18.2c.8 0 1.5.3 2 .8s.8 1.3.8 2v12.7z"/><path class="st2" d="M34 55.3c.2.8.2 1.6-.1 2.4-.3.8-.8 1.4-1.4 1.9-.7.5-1.5.7-2.3.7-.8 0-1.6-.3-2.2-.8-.6-.5-1.1-1.2-1.4-1.9-.2-.8-.2-1.6 0-2.4.3-.8.7-1.4 1.4-1.9s1.4-.7 2.3-.7c.8 0 1.6.3 2.3.8.7.4 1.1 1.1 1.4 1.9z"/></svg>