<svg version="1.1" id="Слой_1" xmlns="http://www.w3.org/2000/svg" x="0" y="0" viewBox="0 0 86 87" xml:space="preserve"><style>.st1,.st2{fill:none;stroke:#fff;stroke-width:3.1082;stroke-miterlimit:10}.st2{stroke-linecap:round}</style><circle cx="43" cy="43.6" r="43" fill="#4a208c"/><path class="st1" d="M28.9 53.6c2.3 0 4.1 1.9 4.1 4.1 0 2.3-1.9 4.1-4.1 4.1s-4.1-1.9-4.1-4.1c0-2.3 1.9-4.1 4.1-4.1z"/><path class="st2" d="M61.2 57.7H38"/><path class="st1" d="M28.9 39.5c2.3 0 4.1 1.9 4.1 4.1 0 2.3-1.9 4.1-4.1 4.1s-4.1-1.9-4.1-4.1c0-2.3 1.9-4.1 4.1-4.1z"/><path class="st2" d="M61.2 43.6H38"/><path class="st1" d="M28.9 25.4c2.3 0 4.1 1.9 4.1 4.1s-1.9 4.1-4.1 4.1-4.1-1.9-4.1-4.1 1.9-4.1 4.1-4.1z"/><path class="st2" d="M61.2 29.5H38"/></svg>