<svg version="1.1" id="Слой_1" xmlns="http://www.w3.org/2000/svg" x="0" y="0" viewBox="0 0 86 87" xml:space="preserve"><style>.st1{fill:none;stroke:#fff;stroke-width:3.11;stroke-miterlimit:10}</style><circle cx="43" cy="43.6" r="43" fill="#4a208c"/><path class="st1" d="M54.9 37.1H25.2c-1.2 0-2.2 1-2.2 2.2V56c0 1.2 1 2.2 2.2 2.2h29.7c1.2 0 2.2-1 2.2-2.2V39.3c0-1.2-1-2.2-2.2-2.2z"/><path class="st1" d="M56.8 51.2l4.6-1.2c.4-.1.7-.3 1-.5.3-.2.5-.5.7-.8.2-.3.3-.7.4-1 0-.4 0-.7-.1-1.1l-4-14.9c-.2-.7-.7-1.3-1.3-1.7s-1.4-.5-2.1-.3l-26.4 7.5M40 52c2.4 0 4.3-1.9 4.3-4.3s-1.9-4.3-4.3-4.3-4.3 1.9-4.3 4.3c0 2.3 1.9 4.3 4.3 4.3z"/><path d="M50.9 49c.8 0 1.4-.6 1.4-1.4 0-.8-.6-1.4-1.4-1.4-.8 0-1.4.6-1.4 1.4 0 .8.6 1.4 1.4 1.4zm-21.7 0c.8 0 1.4-.6 1.4-1.4 0-.8-.6-1.4-1.4-1.4-.8 0-1.4.6-1.4 1.4 0 .8.7 1.4 1.4 1.4z" stroke-width="1.519" fill="none" stroke="#fff" stroke-miterlimit="10"/></svg>