<svg version="1.1" id="Слой_1" xmlns="http://www.w3.org/2000/svg" x="0" y="0" viewBox="0 0 41 41" xml:space="preserve"><style>.st1{fill:#4a208c}</style><path d="M40.9 20.6C40.9 9.4 31.8.3 20.6.3c-5.1 0-9.9 1.9-13.7 5.3-4.1 3.7-6.1 9-6.1 15 0 11.2 8.6 20 19.8 20 5.9 0 11.3-2.2 15-6.3 3.5-3.7 5.4-8.6 5.3-13.7z" fill="#fff"/><path class="st1" d="M24.4 11h2.2c.1 0 .3-.1.4-.2.1-.1.2-.2.2-.4V6.8c0-.1-.1-.1-.1-.2-.1 0-.1-.1-.2-.1h-3.6c-1.6 0-3.2.6-4.4 1.8s-1.8 2.7-1.8 4.4v4.5h-3.4l-.9 3.4 4.6.6.1 12.4 4.4.4.7-.6V21.6h2.9c.1 0 .2 0 .3-.1.1-.1.2-.2.2-.3l.8-3.4v-.3c0-.1-.1-.2-.1-.2l-.2-.2c-.1 0-.2-.1-.2-.1h-3.8v-4.5c0-.2 0-.4.1-.6s.2-.4.4-.5c.2-.2.3-.3.5-.4s.7 0 .9 0z"/><path class="st1" d="M21 33.4c-.6 0-1.2 0-1.8-.1-.3 0-.5-.2-.7-.4-.2-.2-.3-.5-.3-.8V21.6c0-.3-.1-.6-.3-.8-.2-.2-.5-.3-.8-.3h-2.8c-.1 0-.3-.1-.4-.2-.1-.1-.2-.2-.2-.4v-2.8h-.8c-.1 0-.1.1-.2.1-.1.1-.1.1-.1.2V21c0 .1.1.3.2.4.1.1.2.2.4.2h3.9v12.7c1.9.3 3.7.3 5.6 0v-1c-.6 0-1.1.1-1.7.1z"/></svg>