<svg version="1.1" id="Слой_1" xmlns="http://www.w3.org/2000/svg" x="0" y="0" viewBox="0 0 41 41" xml:space="preserve"><style>.st1{fill:#4a208c}</style><circle cx="20.5" cy="20.5" r="20" fill="#fff"/><path class="st1" d="M7.9 15.6c.1-.6.1-1.1.2-1.7.6-3.3 2.9-5.6 6.3-5.7 4-.1 8.1-.1 12.1 0 3.6.1 6.3 2.8 6.4 6.5.1 3.9.1 7.7 0 11.6-.1 3.6-2.8 6.3-6.4 6.5-4 .1-8.1.1-12.1 0-3.6-.1-6.2-2.8-6.4-6.5 0-.3-.1-.6-.1-.9v-9.8zm12.6 15c1.8 0 3.7.1 5.5 0 2.9-.1 4.7-1.8 4.7-4.7.1-3.6.1-7.2 0-10.8-.1-2.9-1.8-4.7-4.7-4.7-3.7-.1-7.3-.1-11 0-2.9.1-4.6 1.8-4.7 4.6-.1 3.6-.1 7.3 0 10.9.1 2.9 1.9 4.5 4.7 4.6 1.8.2 3.6.1 5.5.1z"/><path class="st1" d="M20.5 14.1c-1.3 0-2.5.4-3.6 1.1-1.1.7-1.9 1.7-2.4 2.9s-.6 2.5-.4 3.7.9 2.4 1.8 3.3c.9.9 2 1.5 3.3 1.8 1.2.2 2.5.1 3.7-.4 1.2-.5 2.2-1.3 2.9-2.4.7-1.1 1.1-2.3 1.1-3.6 0-1.7-.7-3.3-1.9-4.5-1.2-1.2-2.8-1.9-4.5-1.9zm0 10.6c-.8 0-1.6-.2-2.3-.7-.7-.5-1.2-1.1-1.5-1.9-.3-.8-.4-1.6-.2-2.4.2-.8.6-1.6 1.1-2.2.6-.6 1.3-1 2.2-1.1.8-.2 1.7-.1 2.4.2.8.3 1.4.9 1.9 1.5.5.7.7 1.5.7 2.3 0 1.1-.4 2.2-1.2 3s-2 1.3-3.1 1.3zm8.3-10.9c0 .3-.1.6-.3.8-.2.3-.4.4-.7.6-.3.1-.6.1-.9.1-.3-.1-.6-.2-.8-.4-.2-.2-.4-.5-.4-.8-.1-.3 0-.6.1-.9.1-.3.3-.5.6-.7.3-.2.5-.3.8-.3.2 0 .4 0 .6.1.2.1.4.2.5.3.1.1.3.3.3.5.1.3.2.5.2.7z"/></svg>