<svg version="1.1" id="Слой_1" xmlns="http://www.w3.org/2000/svg" x="0" y="0" viewBox="0 0 41 41" xml:space="preserve"><style>.st1{fill:#4a208c}</style><path d="M20.9 40.6c11 0 20-9 20-20s-9-20-20-20-20 9-20 20c0 11.1 8.9 20 20 20z" fill="#fff"/><path class="st1" d="M31.5 14.7c-.5-2.2-2.9-4.5-5.2-5-3.6-.7-7.2-.7-10.8 0-2.2.5-4.6 2.8-5.1 5-.7 3-.7 6.1 0 9.1.5 2.1 2.7 4.3 4.9 4.9v2.4c0 .2.1.4.2.5.1.2.3.3.4.4s.4.1.6 0 .4-.1.5-.3l2.4-2.5H21c1.8 0 3.6-.2 5.4-.5 2.2-.5 4.6-2.8 5.2-5 .5-2.9.5-6-.1-9zm-2 8.7c-.4 1.4-2.2 3.2-3.6 3.5-1.9.4-3.8.5-5.7.5l-1.8 1.8-1.9 2s-.1 0-.1.1h-.1s-.1 0-.1-.1v-4c-1.4-.4-3.4-2.4-3.8-3.7-.6-2.7-.6-5.5 0-8.2.4-1.4 2.2-3.2 3.6-3.5 3.3-.6 6.7-.6 10 0 1.4.3 3.3 2.1 3.6 3.5.5 2.5.5 5.4-.1 8.1z"/><path class="st1" d="M24.1 25.2c-.2-.1-.4-.1-.6-.2-2-.9-3.9-1.9-5.4-3.6-.8-1-1.5-2-2.1-3.2-.3-.5-.5-1.1-.7-1.7-.2-.5.1-1 .4-1.4.3-.4.7-.6 1.1-.8.3-.2.7-.1.9.2.5.6 1 1.3 1.4 1.9.2.4.2 1-.3 1.3-.1.1-.2.2-.3.2-.1.1-.2.1-.2.2-.1.1-.1.2-.1.3v.3c.5 1.5 1.4 2.6 2.9 3.2.2.1.5.2.7.2.5-.1.6-.6.9-.8.1-.1.3-.2.5-.2s.4 0 .5.2c.3.2.7.4 1 .7.3.2.6.5.9.7.3.2.4.6.2.9-.3.6-.7 1.1-1.3 1.5 0 0-.3 0-.4.1-.3-.1.2-.1 0 0zm-3.2-11.6c2.7.1 4.9 1.9 5.4 4.5.1.5.1.9.1 1.4 0 .2-.1.4-.3.4-.2 0-.3-.2-.3-.4 0-.4 0-.8-.1-1.1-.3-2-1.9-3.6-3.9-4-.3-.1-.6-.1-.9-.1-.2 0-.4 0-.5-.3v-.1s0-.1.1-.1l.1-.1h.1c.1-.1.1-.1.2-.1 2.7 0-.1 0 0 0z"/><path class="st1" d="M25 18.8v.2c-.1.3-.5.3-.6 0v-.3c0-.6-.1-1.1-.4-1.6-.3-.5-.7-.9-1.3-1.2-.3-.2-.7-.3-1-.3-.2 0-.3 0-.5-.1h-.1s-.1 0-.1-.1c0 0 0-.1-.1-.1v-.2s0-.1.1-.1c0 0 .1 0 .1-.1h.1c.6 0 1.2.2 1.8.5 1.1.6 1.7 1.5 1.9 2.8v.2c.1.1.1.3.1.4 0 .1 0-.1 0 0z"/><path class="st1" d="M23.3 18.8c-.2 0-.3-.1-.4-.3 0-.1 0-.3-.1-.4-.1-.3-.2-.5-.4-.7-.1-.1-.2-.1-.4-.2-.2 0-.3 0-.5-.1h-.1s-.1 0-.1-.1v-.2c0-.1.1-.1.1-.2.1 0 .1-.1.2-.1 1 .1 1.8.6 1.9 1.8v.3c0 .1 0 .1-.1.1 0 .1 0 .1-.1.1-.2 0 .1 0 0 0z"/></svg>