<svg version="1.1" id="Слой_1" xmlns="http://www.w3.org/2000/svg" x="0" y="0" viewBox="0 0 45 45" xml:space="preserve"><style>.st1{fill:none;stroke:#fff;stroke-width:1.7559;stroke-miterlimit:10}</style><circle cx="22.5" cy="22.6" r="22" fill="#4a208c"/><path class="st1" d="M15 16h15.1c.2 0 .5 0 .7.1.2.1.4.2.6.4.2.2.3.4.4.6.1.2.1.5.1.7v9.5c0 .5-.2 1-.5 1.3-.3.3-.8.5-1.3.5H15c-.5 0-1-.2-1.3-.5-.3-.3-.5-.8-.5-1.3v-9.5c0-.5.2-1 .5-1.3.3-.3.8-.5 1.3-.5z"/><path class="st1" d="M13.5 16.4l6.1 5.7c.7.7 1.7 1.1 2.6 1.1 1 0 1.9-.3 2.7-1l6.6-5.9m.4 12.7L25 22.2m-12 7l6.8-6.9"/></svg>