<svg version="1.1" id="Слой_1" xmlns="http://www.w3.org/2000/svg" x="0" y="0" viewBox="0 0 45 45" xml:space="preserve"><style>.st1{fill:#fff}</style><circle cx="22.5" cy="22.6" r="22" fill="#4a208c"/><path class="st1" d="M22.5 13.8c3.7 0 6.8 3 6.8 6.8 0 .4 0 .9-.1 1.3v.1c-.1.5-.3.9-.5 1.3-.8 1.8-2.5 4.6-6.1 7.8-3.7-3.1-5.4-5.9-6.2-7.8-.2-.4-.3-.9-.5-1.3v-.2c-.1-.6-.2-1.3-.1-1.9.2-1.6.9-3.1 2.1-4.3 1.2-1.1 2.8-1.8 4.4-1.8h.2zm0-1.7h-.3c-4.3.1-7.8 3.4-8.2 7.7-.1.8 0 1.6.1 2.4 0 .1 0 .2.1.3.1.6.3 1.1.6 1.7.9 2.1 2.8 5.3 7 8.7.2.2.5.3.8.3.3 0 .6-.1.8-.3 4.2-3.4 6.1-6.6 7-8.7.3-.5.4-1.1.6-1.7 0-.1 0-.2.1-.3.1-.5.2-1.1.2-1.6-.2-4.7-4.1-8.5-8.8-8.5z"/><path class="st1" d="M22.5 18c.5 0 1.1.2 1.5.4.4.3.8.7 1 1.2.2.5.3 1 .2 1.5-.1.5-.4 1-.7 1.4-.4.4-.9.6-1.4.7s-1.1 0-1.6-.2-.9-.5-1.2-1c-.3-.4-.5-1-.5-1.5 0-.7.3-1.4.8-1.9.5-.3 1.2-.6 1.9-.6zm0-1.7c-1.2 0-2.3.5-3.1 1.3-.8.8-1.3 1.9-1.3 3.1 0 2.4 2 4.4 4.4 4.4 1.2 0 2.3-.5 3.1-1.3.8-.8 1.3-1.9 1.3-3.1.1-2.5-1.9-4.4-4.4-4.4z"/></svg>