<svg version="1.1" id="Слой_1" xmlns="http://www.w3.org/2000/svg" x="0" y="0" viewBox="0 0 45 45" xml:space="preserve"><circle cx="22.5" cy="22.6" r="22" fill="#4a208c"/><path d="M17.1 13.9l.7 3.3-1.4 1.4c-.3.3-.4.6-.5.9-.1.4 0 .7.2 1 1.8 3.6 4.8 6.6 8.4 8.4.3.2.7.2 1 .2s.7-.2.9-.5l1.4-1.4 3.3.7c-.1.4-.2.8-.4 1.2-.3.6-.8 1.1-1.3 1.5-.5.4-1.2.6-1.8.7H27c-.5 0-1-.1-1.4-.3-2.7-1-5.1-2.5-7.1-4.6-2-2-3.6-4.5-4.6-7.1-.2-.6-.3-1.3-.2-2 .1-.7.3-1.3.7-1.8.4-.5.9-1 1.5-1.3l1.2-.3zm.9-1.8c-1 0-1.9.2-2.8.7-.8.4-1.5 1.1-2 1.8-.5.8-.9 1.6-1 2.5-.1 1 0 1.9.3 2.9 1.1 2.9 2.8 5.6 5 7.8s4.9 3.9 7.8 5c.9.3 1.9.4 2.9.3.9-.1 1.8-.5 2.5-1 .8-.5 1.4-1.2 1.8-2 .5-.9.7-1.8.7-2.8 0-.1-.1-.3-.1-.4-.1-.1-.2-.2-.4-.2l-4.8-1h-.1c-.2 0-.3.1-.5.2l-1.8 1.8c-3.3-1.7-6-4.3-7.7-7.7l1.8-1.8c.1-.1.1-.2.2-.3v-.3l-1-4.8c0-.1-.1-.3-.2-.4-.3-.2-.5-.3-.6-.3z" fill="#fff"/><path d="M22.4 13s9.6-.5 9.7 10.2m-9.7-6.8s5.9 0 5.9 6.3" fill="none" stroke="#fff" stroke-width="1.819" stroke-linecap="round" stroke-miterlimit="10"/></svg>